<svg width="51" height="41" viewBox="0 0 51 41" fill="none" xmlns="http://www.w3.org/2000/svg">
<path fill-rule="evenodd" clip-rule="evenodd" d="M50.3948 37.0206C50.3868 37.0447 50.3769 37.0689 50.3649 37.091L50.3653 37.0907C50.3533 37.1148 50.3414 37.1369 50.3174 37.153L50.3081 37.1673C50.3019 37.1765 50.2957 37.1851 50.2895 37.1938L50.2756 37.2134C50.2596 37.2335 50.2417 37.2557 50.2237 37.2758L50.2167 37.2829L50.1991 37.3004L50.1895 37.3096C50.1844 37.3144 50.1792 37.3193 50.1739 37.3241C50.1539 37.3442 50.132 37.3623 50.1101 37.3784C50.0921 37.3905 50.0702 37.4046 50.0503 37.4166L50.0372 37.4235L50.0204 37.4328C50.007 37.4403 49.9934 37.4479 49.9785 37.4549C49.9617 37.4633 49.9439 37.4698 49.9259 37.4764L49.9258 37.4764L49.9257 37.4765C49.9215 37.478 49.9172 37.4796 49.913 37.4811C49.9096 37.4824 49.9061 37.4837 49.9027 37.485C49.8974 37.487 49.8923 37.4893 49.8872 37.4915C49.877 37.496 49.8668 37.5005 49.8549 37.5031C49.8521 37.5038 49.8497 37.504 49.8472 37.5041C49.8461 37.5042 49.845 37.5042 49.8439 37.5042L49.8402 37.5042C49.8379 37.5043 49.8355 37.5045 49.8329 37.5052C49.7711 37.5213 49.7073 37.5313 49.6415 37.5313C49.5518 37.5313 49.5199 37.5454 49.5199 37.5454C49.4832 37.5883 49.4166 37.8029 49.3744 37.9388L49.3704 37.9518C49.2148 38.4549 48.8898 39.5012 47.5759 39.5012C46.452 39.5012 45.8937 38.7481 45.4852 38.1971L45.4823 38.1933C45.0995 37.6721 44.9539 37.5313 44.6668 37.5313C44.3797 37.5313 44.2361 37.6721 43.8513 38.1912L43.8485 38.1951C43.44 38.746 42.8817 39.4991 41.7558 39.4991C40.6319 39.4991 40.0736 38.7461 39.6651 38.1951L39.6622 38.1912C39.2794 37.6721 39.1338 37.5313 38.8467 37.5313C38.5616 37.5313 38.416 37.6721 38.0312 38.1933C37.6244 38.7446 37.0641 39.5012 35.9376 39.5012C34.8117 39.5012 34.2534 38.7481 33.8449 38.1971L33.8421 38.1933C33.4592 37.6742 33.3137 37.5333 33.0266 37.5333C32.7395 37.5333 32.5959 37.6742 32.2111 38.1933C31.8043 38.7446 31.246 39.5012 30.1175 39.5012C28.9936 39.5012 28.4353 38.7481 28.0268 38.1972L28.0239 38.1933C27.6411 37.6742 27.4955 37.5333 27.2084 37.5333C26.9233 37.5333 26.7777 37.6742 26.3929 38.1953C25.9862 38.7466 25.4259 39.5032 24.2994 39.5032C23.1754 39.5032 22.6172 38.7502 22.2087 38.1992L22.2058 38.1953C21.823 37.6762 21.6774 37.5354 21.3903 37.5354C21.1052 37.5354 20.9596 37.6763 20.5748 38.1974C20.168 38.7487 19.6077 39.5053 18.4812 39.5053C18.1243 39.5053 17.7993 39.3584 17.57 39.0928C17.0137 38.453 17.1254 37.3624 17.3547 35.636L17.3586 35.6062C17.4405 34.9816 17.5654 34.029 17.5241 33.5656C16.0348 33.8592 13.9213 36.8715 12.8247 39.0627C12.6891 39.3364 12.4119 39.5054 12.1129 39.5054C12.0969 39.5054 12.081 39.5054 12.065 39.5034C11.748 39.4853 11.4708 39.278 11.3632 38.9762C11.1797 38.4647 9.61258 33.9116 11.2416 31.3924C11.8517 30.4507 12.8406 29.9095 14.1047 29.827C15.2033 29.7546 15.7058 29.4568 15.8015 29.2213C15.8653 29.0644 15.7636 28.7968 15.5403 28.5413C14.9461 27.8592 13.6182 27.3119 12.1069 27.7264C10.0112 28.2981 7.66248 31.1331 6.87092 34.0466C6.59376 35.0708 6.29465 36.9662 7.42718 38.1392C7.73423 38.4592 7.72626 38.9682 7.41123 39.2781C7.0942 39.5879 6.59177 39.5819 6.28273 39.262C5.03257 37.9683 4.69561 35.9643 5.33165 33.6222C6.15497 30.5879 8.75906 26.9721 11.69 26.1733C13.8733 25.5778 15.7973 26.3987 16.7384 27.4792C17.3904 28.2257 17.5858 29.0849 17.2768 29.8374C17.0076 30.4913 16.2579 31.3002 14.2083 31.435C13.4446 31.4853 12.9123 31.761 12.5793 32.274C11.9074 33.3123 12.0629 35.1533 12.3679 36.6222C13.5643 34.6845 15.6639 31.8696 17.8372 31.938C18.1881 31.9501 18.5051 32.103 18.7284 32.3706C18.9517 32.6362 19.0614 32.9803 19.1013 33.4068C20.5687 32.4269 22.7104 31.4571 26.9373 31.0265C22.3553 12.2939 30.9689 1.7485 31.3597 1.28371C31.363 1.28035 31.3664 1.27769 31.3695 1.27515C31.374 1.2716 31.3782 1.26828 31.3816 1.26359C31.4056 1.23743 31.4295 1.2153 31.4554 1.19316C31.4714 1.17707 31.4873 1.16298 31.5053 1.15091C31.5297 1.13443 31.5542 1.12065 31.5798 1.10626L31.597 1.09658C31.6129 1.08652 31.6289 1.07646 31.6468 1.06841C31.6847 1.05231 31.7226 1.04024 31.7625 1.03018C31.7718 1.02884 31.7811 1.02571 31.7904 1.02258C31.795 1.02101 31.7997 1.01945 31.8043 1.01811C31.8582 1.00604 31.914 1 31.9718 1L32.0895 1.00402C32.3247 1.00402 32.546 1.10664 32.6976 1.28773C33.0884 1.75029 41.6599 12.2418 37.1598 30.8837C48.9273 31.5798 50.3669 36.3183 50.4227 36.5256C50.4247 36.5336 50.4247 36.5437 50.4267 36.5517L50.4387 36.6302C50.4427 36.6584 50.4467 36.6866 50.4467 36.7147C50.4467 36.7187 50.4471 36.7227 50.4476 36.7267L50.4476 36.7268L50.4477 36.7269C50.4482 36.7309 50.4486 36.7349 50.4486 36.7389C50.4486 36.743 50.4485 36.747 50.4483 36.7509C50.4481 36.7541 50.4478 36.7573 50.4475 36.7604C50.4469 36.767 50.4461 36.7735 50.4453 36.7803L50.4447 36.7851L50.4445 36.788L50.4445 36.7881C50.4425 36.8154 50.4405 36.8445 50.4347 36.8717C50.4307 36.8958 50.4247 36.9199 50.4188 36.944L50.4187 36.9441C50.4163 36.952 50.4141 36.9599 50.4119 36.9678L50.4119 36.9679L50.4118 36.9679C50.4067 36.986 50.4017 37.0038 50.3948 37.0206ZM32.769 33.3625H34.8306C39.3708 18.3788 35.0998 8.27788 32.769 4.26774V33.3625ZM31.1739 4.47897V33.3626H29.2299C24.7776 18.6704 28.8251 8.63375 31.1739 4.47897ZM47.8526 37.4944L47.8566 37.4813L47.856 37.4814C47.9497 37.1795 48.1092 36.6846 48.502 36.3365C47.6189 35.2097 44.8336 32.8958 36.7484 32.4752C36.5729 33.1131 36.3835 33.759 36.1762 34.4149C36.0705 34.7489 35.7634 34.9762 35.4165 34.9762H28.6416C28.2947 34.9762 27.9876 34.7489 27.882 34.4149C27.6905 33.8032 27.5151 33.2016 27.3496 32.608C22.2233 33.095 20.389 34.3927 18.9873 35.4873C18.981 35.5345 18.9751 35.5813 18.9691 35.6286C18.9598 35.7023 18.9504 35.7771 18.9394 35.8555C18.8617 36.4431 18.742 37.3485 18.766 37.8314C18.9115 37.7449 19.0591 37.5678 19.2983 37.2419L19.3012 37.238C19.7097 36.6871 20.268 35.934 21.3939 35.934C22.5178 35.934 23.0761 36.687 23.4846 37.238L23.4874 37.2419C23.8703 37.761 24.0158 37.9018 24.303 37.9018C24.5901 37.9018 24.7336 37.761 25.1185 37.2419L25.1213 37.238C25.5298 36.6871 26.0881 35.934 27.214 35.934C28.3379 35.934 28.8962 36.687 29.3047 37.238L29.3076 37.2419C29.6924 37.761 29.838 37.9018 30.1231 37.9018C30.4102 37.9018 30.5538 37.761 30.9386 37.2419C31.3454 36.6906 31.9037 35.934 33.0322 35.934C34.1561 35.934 34.7144 36.687 35.1228 37.238L35.1257 37.2419C35.5106 37.763 35.6561 37.9039 35.9432 37.9039C36.2303 37.9039 36.3739 37.7631 36.7587 37.2439L36.7616 37.2401C37.1701 36.6891 37.7284 35.9361 38.8543 35.9361C39.9782 35.9361 40.5365 36.6891 40.945 37.24L40.9478 37.2439C41.3307 37.763 41.4762 37.9039 41.7633 37.9039C42.0505 37.9039 42.196 37.763 42.5808 37.2419C42.9876 36.6906 43.5479 35.934 44.6744 35.934C45.8003 35.934 46.3586 36.687 46.7671 37.238L46.77 37.2419C47.1548 37.761 47.3004 37.9018 47.5855 37.9018C47.6752 37.9018 47.7071 37.8877 47.7071 37.8877C47.7438 37.8449 47.8104 37.6303 47.8526 37.4944Z" fill="white"/>
<path d="M50.3649 37.091L49.925 36.8532L50.6824 37.4773L50.3649 37.091ZM50.3948 37.0206L49.9326 36.8298L49.9257 36.8465L49.92 36.8637L50.3948 37.0206ZM50.3653 37.0907L50.8133 37.3127L50.0478 36.7044L50.3653 37.0907ZM50.3174 37.153L50.0384 36.7382L49.9543 36.7947L49.8989 36.8795L50.3174 37.153ZM50.3081 37.1673L50.7224 37.4474L50.7266 37.4409L50.3081 37.1673ZM50.2895 37.1938L49.8833 36.9022L49.8817 36.9045L50.2895 37.1938ZM50.2756 37.2134L50.6674 37.524L50.6757 37.5136L50.6834 37.5027L50.2756 37.2134ZM50.2237 37.2758L50.5788 37.6278L50.5881 37.6184L50.5969 37.6086L50.2237 37.2758ZM50.2167 37.2829L50.5692 37.6375L50.5717 37.6349L50.2167 37.2829ZM50.1991 37.3004L50.5462 37.6603L50.5516 37.6549L50.1991 37.3004ZM50.1895 37.3096L50.5341 37.6719L50.5366 37.6695L50.1895 37.3096ZM50.1739 37.3241L49.84 36.9519L49.8291 36.9617L49.8187 36.9721L50.1739 37.3241ZM50.1101 37.3784L50.3892 37.7932L50.3977 37.7875L50.4059 37.7815L50.1101 37.3784ZM50.0503 37.4166L50.2827 37.8593L50.2962 37.8522L50.3092 37.8443L50.0503 37.4166ZM50.0372 37.4235L49.8047 36.9807L49.795 36.9861L50.0372 37.4235ZM50.0204 37.4328L49.7782 36.9954L49.776 36.9966L50.0204 37.4328ZM49.9785 37.4549L49.7674 37.0016L49.7603 37.0049L49.7533 37.0084L49.9785 37.4549ZM49.9259 37.4764L49.7546 37.0067L49.7473 37.0093L49.7402 37.0121L49.9259 37.4764ZM49.9257 37.4765L50.0972 37.9461L50.1044 37.9435L50.1114 37.9407L49.9257 37.4765ZM49.913 37.4811L50.0873 37.9498L50.0873 37.9498L49.913 37.4811ZM49.9027 37.485L50.0796 37.9527L50.0837 37.9511L49.9027 37.485ZM49.8872 37.4915L50.088 37.9494L50.0882 37.9494L49.8872 37.4915ZM49.8549 37.5031L49.7453 37.0151L49.7325 37.0184L49.8549 37.5031ZM49.8472 37.5041L49.833 37.0043L49.832 37.0043L49.8472 37.5041ZM49.8439 37.5042V37.0041L49.8377 37.0042L49.8439 37.5042ZM49.8402 37.5042L49.834 37.0041L49.8228 37.0045L49.8402 37.5042ZM49.8329 37.5052L49.7108 37.0203L49.7069 37.0213L49.8329 37.5052ZM49.5199 37.5454L49.318 37.088L49.2139 37.1339L49.14 37.2203L49.5199 37.5454ZM49.3744 37.9388L48.8969 37.7906L48.8969 37.7906L49.3744 37.9388ZM49.3704 37.9518L48.8928 37.8036L48.8927 37.8042L49.3704 37.9518ZM45.4852 38.1971L45.8869 37.8994L45.8868 37.8992L45.4852 38.1971ZM45.4823 38.1933L45.0794 38.4893L45.0808 38.4912L45.4823 38.1933ZM43.8513 38.1912L43.4497 37.8935L43.4496 37.8935L43.8513 38.1912ZM43.8485 38.1951L44.2501 38.4928L44.2502 38.4928L43.8485 38.1951ZM39.6651 38.1951L40.0667 37.8973L40.0667 37.8972L39.6651 38.1951ZM39.6622 38.1912L39.2598 38.488L39.2606 38.4891L39.6622 38.1912ZM38.0312 38.1933L37.629 37.8963L37.6288 37.8964L38.0312 38.1933ZM33.8449 38.1971L33.4433 38.4949L33.4433 38.4949L33.8449 38.1971ZM33.8421 38.1933L33.4397 38.49L33.4404 38.491L33.8421 38.1933ZM32.2111 38.1933L31.8094 37.8955L31.8087 37.8964L32.2111 38.1933ZM28.0268 38.1972L27.6251 38.4949L27.6252 38.4949L28.0268 38.1972ZM28.0239 38.1933L27.6215 38.49L27.6222 38.491L28.0239 38.1933ZM26.3929 38.1953L25.9907 37.8983L25.9906 37.8985L26.3929 38.1953ZM22.2087 38.1992L22.6103 37.9014L22.6103 37.9014L22.2087 38.1992ZM22.2058 38.1953L21.8034 38.4921L21.8041 38.4931L22.2058 38.1953ZM20.5748 38.1974L20.1726 37.9004L20.1724 37.9005L20.5748 38.1974ZM17.57 39.0928L17.9485 38.7661L17.9473 38.7647L17.57 39.0928ZM17.3547 35.636L17.8503 35.7019L17.8504 35.701L17.3547 35.636ZM17.3586 35.6062L16.8628 35.5412L16.8628 35.5412L17.3586 35.6062ZM17.5241 33.5656L18.0222 33.5213L17.9729 32.9675L17.4274 33.075L17.5241 33.5656ZM12.8247 39.0627L12.3775 38.8389L12.3766 38.8408L12.8247 39.0627ZM12.065 39.5034L12.1276 39.0073L12.1106 39.0052L12.0935 39.0042L12.065 39.5034ZM11.3632 38.9762L11.8341 38.8082L11.8338 38.8074L11.3632 38.9762ZM11.2416 31.3924L10.8219 31.1206L10.8217 31.1209L11.2416 31.3924ZM14.1047 29.827L14.1373 30.3259L14.1376 30.3259L14.1047 29.827ZM15.8015 29.2213L16.2647 29.4096L16.2647 29.4096L15.8015 29.2213ZM15.5403 28.5413L15.1633 28.8697L15.1638 28.8703L15.5403 28.5413ZM12.1069 27.7264L12.2385 28.2087L12.2391 28.2086L12.1069 27.7264ZM6.87092 34.0466L6.38841 33.9155L6.38828 33.916L6.87092 34.0466ZM7.42718 38.1392L7.78792 37.793L7.78689 37.7919L7.42718 38.1392ZM7.41123 39.2781L7.76072 39.6356L7.76185 39.6345L7.41123 39.2781ZM6.28273 39.262L6.64234 38.9146L6.64228 38.9145L6.28273 39.262ZM5.33165 33.6222L5.81417 33.7532L5.8142 33.7531L5.33165 33.6222ZM11.69 26.1733L11.8215 26.6557L11.8216 26.6557L11.69 26.1733ZM16.7384 27.4792L16.3614 27.8076L16.3619 27.8081L16.7384 27.4792ZM17.2768 29.8374L17.7392 30.0277L17.7393 30.0273L17.2768 29.8374ZM14.2083 31.435L14.1754 30.9361L14.1754 30.9361L14.2083 31.435ZM12.5793 32.274L12.1599 32.0019L12.1595 32.0024L12.5793 32.274ZM12.3679 36.6222L11.8784 36.7239L12.1337 37.9533L12.7934 36.8849L12.3679 36.6222ZM17.8372 31.938L17.8543 31.4383L17.8529 31.4382L17.8372 31.938ZM18.7284 32.3706L18.3445 32.6909L18.3457 32.6924L18.7284 32.3706ZM19.1013 33.4068L18.6034 33.4534L18.6815 34.2883L19.3789 33.8226L19.1013 33.4068ZM26.9373 31.0265L26.988 31.5239L27.5595 31.4657L27.423 30.9077L26.9373 31.0265ZM31.3597 1.28371L31.0045 0.931781L30.9901 0.946296L30.977 0.961935L31.3597 1.28371ZM31.3695 1.27515L31.0576 0.884386L31.0575 0.884449L31.3695 1.27515ZM31.3816 1.26359L31.0127 0.926128L30.9955 0.944919L30.9803 0.96536L31.3816 1.26359ZM31.4554 1.19316L31.7801 1.57341L31.7959 1.55989L31.8106 1.54511L31.4554 1.19316ZM31.5053 1.15091L31.2262 0.736043L31.2261 0.73606L31.5053 1.15091ZM31.5798 1.10626L31.825 1.54203L31.8255 1.54171L31.5798 1.10626ZM31.597 1.09658L31.8427 1.53203L31.8534 1.52602L31.8637 1.51949L31.597 1.09658ZM31.6468 1.06841L31.4512 0.608139L31.4422 0.612198L31.6468 1.06841ZM31.7625 1.03018L31.6911 0.535295L31.6654 0.539007L31.6402 0.545372L31.7625 1.03018ZM31.7904 1.02258L31.631 0.548675L31.631 0.548677L31.7904 1.02258ZM31.8043 1.01811L31.6949 0.530229L31.6802 0.533517L31.6658 0.537679L31.8043 1.01811ZM31.9718 1L31.9889 0.500292L31.9804 0.5H31.9718V1ZM32.0895 1.00402L32.0724 1.50373L32.0809 1.50402H32.0895V1.00402ZM32.6976 1.28773L32.3141 1.60861L32.3156 1.61041L32.6976 1.28773ZM37.1598 30.8837L36.6738 30.7664L36.5335 31.3475L37.1303 31.3828L37.1598 30.8837ZM50.4227 36.5256L50.9082 36.4055L50.9055 36.3955L50.4227 36.5256ZM50.4267 36.5517L50.921 36.4764L50.9175 36.4537L50.912 36.4314L50.4267 36.5517ZM50.4387 36.6302L50.9338 36.5601L50.933 36.5549L50.4387 36.6302ZM50.4476 36.7267L49.9514 36.7878L49.9515 36.7887L50.4476 36.7267ZM50.4476 36.7268L49.9514 36.7888L49.9527 36.7975L50.4476 36.7268ZM50.4477 36.7269L50.944 36.6657L50.9426 36.6562L50.4477 36.7269ZM50.4483 36.7509L50.9474 36.7802L50.9474 36.7799L50.4483 36.7509ZM50.4475 36.7604L49.9498 36.7133L49.9497 36.7137L50.4475 36.7604ZM50.4453 36.7803L49.9491 36.7182L49.9491 36.7183L50.4453 36.7803ZM50.4447 36.7851L49.9485 36.7231L49.9468 36.7369L49.9458 36.7508L50.4447 36.7851ZM50.4445 36.788L50.9425 36.8332L50.9433 36.8223L50.4445 36.788ZM50.4445 36.7881L49.9464 36.7428L49.9457 36.7528L50.4445 36.7881ZM50.4347 36.8717L49.9456 36.7678L49.9432 36.7789L49.9414 36.7902L50.4347 36.8717ZM50.4188 36.944L49.9333 36.8237L49.9307 36.8355L50.4188 36.944ZM50.4187 36.9441L50.897 37.0898L50.9026 37.0714L50.9068 37.0526L50.4187 36.9441ZM50.4119 36.9678L50.8909 37.1115L50.8932 37.1033L50.4119 36.9678ZM50.4119 36.9679L50.8862 37.126L50.8886 37.1188L50.8908 37.1116L50.4119 36.9679ZM50.4118 36.9679L49.9375 36.8098L49.9338 36.821L49.9306 36.8323L50.4118 36.9679ZM34.8306 33.3625V33.8625H35.2016L35.3091 33.5075L34.8306 33.3625ZM32.769 33.3625H32.269V33.8625H32.769V33.3625ZM32.769 4.26774L33.2012 4.01648L32.269 2.41249V4.26774H32.769ZM31.1739 33.3626V33.8626H31.6739V33.3626H31.1739ZM31.1739 4.47897H31.6739V2.5785L30.7386 4.23291L31.1739 4.47897ZM29.2299 33.3626L28.7513 33.5076L28.8589 33.8626H29.2299V33.3626ZM47.8566 37.4813L48.3341 37.6297L48.566 36.8835L47.7913 36.9856L47.8566 37.4813ZM47.8526 37.4944L47.3751 37.346L47.375 37.3462L47.8526 37.4944ZM47.856 37.4814L47.3785 37.3331L47.1469 38.0791L47.9213 37.9771L47.856 37.4814ZM48.502 36.3365L48.8336 36.7107L49.1859 36.3985L48.8955 36.0281L48.502 36.3365ZM36.7484 32.4752L36.7744 31.9759L36.3729 31.955L36.2663 32.3426L36.7484 32.4752ZM36.1762 34.4149L36.6529 34.5658L36.6529 34.5656L36.1762 34.4149ZM27.882 34.4149L27.4048 34.5642L27.4052 34.5657L27.882 34.4149ZM27.3496 32.608L27.8312 32.4737L27.7188 32.0707L27.3023 32.1103L27.3496 32.608ZM18.9873 35.4873L18.6795 35.0932L18.5184 35.2191L18.4916 35.4218L18.9873 35.4873ZM18.9691 35.6286L18.4731 35.5658L18.4731 35.5658L18.9691 35.6286ZM18.9394 35.8555L18.4442 35.7865L18.4437 35.7899L18.9394 35.8555ZM18.766 37.8314L18.2666 37.8561L18.3077 38.6854L19.0214 38.2612L18.766 37.8314ZM19.2983 37.2419L18.8966 36.9442L18.8953 36.946L19.2983 37.2419ZM19.3012 37.238L18.8995 36.9402L18.8995 36.9403L19.3012 37.238ZM23.4846 37.238L23.8864 36.9404L23.8862 36.9402L23.4846 37.238ZM23.4874 37.2419L23.8898 36.9451L23.8892 36.9443L23.4874 37.2419ZM25.1185 37.2419L25.5201 37.5396L25.5202 37.5396L25.1185 37.2419ZM25.1213 37.238L24.7197 36.9402L24.7196 36.9403L25.1213 37.238ZM29.3047 37.238L29.7065 36.9404L29.7064 36.9402L29.3047 37.238ZM29.3076 37.2419L28.9058 37.5395L28.9059 37.5396L29.3076 37.2419ZM30.9386 37.2419L31.3403 37.5396L31.3409 37.5387L30.9386 37.2419ZM35.1228 37.238L34.7212 37.5358L34.7212 37.5358L35.1228 37.238ZM35.1257 37.2419L35.5279 36.9449L35.5273 36.944L35.1257 37.2419ZM36.7587 37.2439L36.3571 36.9461L36.3571 36.9462L36.7587 37.2439ZM36.7616 37.2401L37.1632 37.5379L37.1632 37.5379L36.7616 37.2401ZM40.945 37.24L40.5433 37.5378L40.5433 37.5378L40.945 37.24ZM40.9478 37.2439L41.3502 36.9472L41.3495 36.9461L40.9478 37.2439ZM42.5808 37.2419L42.9831 37.5389L42.9832 37.5387L42.5808 37.2419ZM46.7671 37.238L47.1688 36.9403L47.1687 36.9402L46.7671 37.238ZM46.77 37.2419L46.3683 37.5396L46.3683 37.5396L46.77 37.2419ZM47.7071 37.8877L47.909 38.3451L48.013 38.2992L48.087 38.2128L47.7071 37.8877ZM50.8048 37.3287C50.8332 37.2761 50.8542 37.224 50.8696 37.1774L49.92 36.8637C49.9199 36.8641 49.92 36.8637 49.9206 36.8623C49.9212 36.8609 49.9226 36.8578 49.925 36.8532L50.8048 37.3287ZM50.0478 36.7044L50.0475 36.7047L50.6824 37.4773L50.6827 37.477L50.0478 36.7044ZM50.5965 37.5679C50.7401 37.4713 50.8005 37.3385 50.8133 37.3127L49.9173 36.8687C49.9061 36.8911 49.9426 36.8026 50.0384 36.7382L50.5965 37.5679ZM50.7266 37.4409L50.7359 37.4266L49.8989 36.8795L49.8896 36.8937L50.7266 37.4409ZM50.6957 37.4854C50.7014 37.4774 50.7116 37.4632 50.7223 37.4474L49.8939 36.8872C49.8922 36.8897 49.89 36.8929 49.8833 36.9022L50.6957 37.4854ZM50.6834 37.5027L50.6973 37.4831L49.8817 36.9045L49.8678 36.9241L50.6834 37.5027ZM50.5969 37.6086C50.6247 37.5774 50.6498 37.5462 50.6674 37.524L49.8838 36.9028C49.8695 36.9208 49.8587 36.9339 49.8506 36.943L50.5969 37.6086ZM50.5717 37.6349L50.5788 37.6278L49.8687 36.9237L49.8616 36.9309L50.5717 37.6349ZM50.5516 37.6549L50.5692 37.6375L49.8641 36.9283L49.8466 36.9458L50.5516 37.6549ZM50.5366 37.6695L50.5462 37.6603L49.852 36.9404L49.8424 36.9497L50.5366 37.6695ZM50.5077 37.6963C50.5172 37.6878 50.526 37.6796 50.5341 37.6719L49.8449 36.9473C49.8429 36.9493 49.8413 36.9507 49.84 36.9519L50.5077 37.6963ZM50.4059 37.7815C50.4432 37.7541 50.4863 37.7191 50.529 37.676L49.8187 36.9721C49.8204 36.9705 49.8209 36.9701 49.82 36.9708C49.8191 36.9716 49.8173 36.9731 49.8142 36.9753L50.4059 37.7815ZM50.3092 37.8443C50.3365 37.8278 50.3651 37.8094 50.3892 37.7932L49.831 36.9636C49.8191 36.9715 49.8039 36.9813 49.7913 36.9889L50.3092 37.8443ZM50.2697 37.8662L50.2827 37.8593L49.8178 36.9739L49.8048 36.9808L50.2697 37.8662ZM50.2627 37.8702L50.2795 37.8609L49.795 36.9861L49.7782 36.9954L50.2627 37.8702ZM50.1896 37.9081C50.224 37.8921 50.2534 37.8754 50.2648 37.869L49.776 36.9966C49.7687 37.0007 49.7662 37.0021 49.7642 37.0031C49.7628 37.0039 49.7642 37.0031 49.7674 37.0016L50.1896 37.9081ZM50.0972 37.9461C50.1106 37.9412 50.1563 37.9252 50.2036 37.9013L49.7533 37.0084C49.7578 37.0061 49.7614 37.0045 49.7638 37.0035C49.7662 37.0024 49.7676 37.0019 49.7676 37.0018C49.7677 37.0018 49.7668 37.0021 49.7646 37.003C49.7621 37.0039 49.7593 37.0049 49.7546 37.0067L50.0972 37.9461ZM50.1115 37.9407L50.1116 37.9406L49.7402 37.0121L49.7401 37.0122L50.1115 37.9407ZM50.1114 37.9407L50.1115 37.9407L49.7401 37.0122L49.74 37.0122L50.1114 37.9407ZM50.0873 37.9498C50.0899 37.9488 50.0928 37.9477 50.0972 37.9461L49.7543 37.0068C49.7502 37.0083 49.7445 37.0103 49.7386 37.0125L50.0873 37.9498ZM50.0837 37.9511C50.0842 37.9509 50.0853 37.9505 50.0873 37.9498L49.7386 37.0125C49.7338 37.0143 49.7281 37.0165 49.7217 37.019L50.0837 37.9511ZM50.0882 37.9494C50.0912 37.948 50.0908 37.9482 50.0898 37.9486C50.0885 37.9492 50.0848 37.9507 50.0796 37.9527L49.7258 37.0174C49.7064 37.0247 49.6895 37.0322 49.6863 37.0337L50.0882 37.9494ZM49.9643 37.991C50.0301 37.9763 50.0822 37.952 50.088 37.9494L49.6864 37.0336C49.6795 37.0366 49.6861 37.0336 49.6948 37.0304C49.7053 37.0264 49.7228 37.0203 49.7454 37.0153L49.9643 37.991ZM49.8614 38.0039C49.8852 38.0032 49.9269 38.0006 49.9772 37.9879L49.7325 37.0184C49.7773 37.007 49.8141 37.0049 49.833 37.0043L49.8614 38.0039ZM49.8439 38.0042C49.8441 38.0042 49.8466 38.0042 49.8494 38.0041C49.8525 38.0041 49.857 38.0041 49.8625 38.0039L49.832 37.0043C49.8363 37.0042 49.8398 37.0042 49.8417 37.0042C49.8434 37.0041 49.8448 37.0042 49.8439 37.0042V38.0042ZM49.8464 38.0042L49.8501 38.0041L49.8377 37.0042L49.834 37.0042L49.8464 38.0042ZM49.955 37.99C49.9126 38.0007 49.8775 38.0032 49.8576 38.0039L49.8228 37.0045C49.7983 37.0054 49.7584 37.0083 49.7108 37.0203L49.955 37.99ZM49.6415 38.0313C49.7585 38.0313 49.8653 38.0134 49.9589 37.989L49.7069 37.0213C49.6769 37.0291 49.6561 37.0313 49.6415 37.0313V38.0313ZM49.5199 37.5454C49.7218 38.0028 49.7216 38.0029 49.7214 38.003C49.7213 38.003 49.7211 38.0031 49.7209 38.0032C49.7206 38.0034 49.7203 38.0035 49.72 38.0036C49.7194 38.0039 49.7188 38.0042 49.7181 38.0044C49.7169 38.0049 49.7157 38.0055 49.7145 38.006C49.7121 38.007 49.7097 38.008 49.7074 38.0089C49.7028 38.0108 49.6983 38.0125 49.694 38.0141C49.6853 38.0173 49.6774 38.0199 49.6702 38.022C49.6559 38.0263 49.6447 38.0288 49.6373 38.0301C49.6227 38.0328 49.6225 38.0313 49.6415 38.0313V37.0313C49.5708 37.0313 49.5098 37.0368 49.4568 37.0466C49.4302 37.0514 49.4055 37.0574 49.3824 37.0644C49.3708 37.0678 49.3597 37.0716 49.3489 37.0755C49.3436 37.0775 49.3383 37.0795 49.3331 37.0816C49.3306 37.0826 49.328 37.0837 49.3255 37.0847C49.3242 37.0853 49.3229 37.0858 49.3217 37.0864C49.3211 37.0866 49.3204 37.0869 49.3198 37.0872C49.3195 37.0873 49.3192 37.0874 49.3189 37.0876C49.3187 37.0876 49.3185 37.0878 49.3184 37.0878C49.3182 37.0879 49.318 37.088 49.5199 37.5454ZM49.8519 38.087C49.8736 38.0174 49.8982 37.9382 49.9213 37.8719C49.933 37.8384 49.9418 37.8153 49.9475 37.8021C49.9504 37.7954 49.9501 37.7966 49.9468 37.8028C49.945 37.8062 49.9411 37.8135 49.9348 37.8233C49.9291 37.8323 49.9175 37.8497 49.8998 37.8705L49.14 37.2203C49.0743 37.297 49.0374 37.387 49.0277 37.4096C49.0093 37.4529 48.9919 37.5 48.9771 37.5425C48.9472 37.6282 48.9174 37.7243 48.8969 37.7906L49.8519 38.087ZM49.8479 38.1001L49.8519 38.087L48.8969 37.7906L48.8928 37.8036L49.8479 38.1001ZM47.5759 40.0012C48.3903 40.0012 48.9396 39.6664 49.2948 39.2314C49.6289 38.8222 49.772 38.3456 49.848 38.0995L48.8927 37.8042C48.8132 38.0612 48.716 38.3592 48.5202 38.5989C48.3456 38.8128 48.0755 39.0012 47.5759 39.0012V40.0012ZM45.0836 38.4949C45.4842 39.0353 46.1776 40.0012 47.5759 40.0012V39.0012C46.7264 39.0012 46.3032 38.4609 45.8869 37.8994L45.0836 38.4949ZM45.0808 38.4912L45.0837 38.495L45.8868 37.8992L45.8839 37.8954L45.0808 38.4912ZM44.6668 38.0313C44.6965 38.0313 44.7002 38.0347 44.694 38.0325C44.6875 38.0302 44.6938 38.0303 44.7181 38.0506C44.7841 38.1056 44.8819 38.2205 45.0794 38.4893L45.8853 37.8973C45.6999 37.6449 45.5336 37.4287 45.3592 37.2831C45.1459 37.1049 44.9232 37.0313 44.6668 37.0313V38.0313ZM44.253 38.489C44.452 38.2205 44.5498 38.1058 44.6162 38.0504C44.6406 38.03 44.6468 38.03 44.6401 38.0324C44.6336 38.0347 44.6372 38.0313 44.6668 38.0313V37.0313C44.4102 37.0313 44.1881 37.105 43.9753 37.2828C43.8018 37.4276 43.6355 37.6428 43.4497 37.8935L44.253 38.489ZM44.2502 38.4928L44.253 38.4889L43.4496 37.8935L43.4468 37.8974L44.2502 38.4928ZM41.7558 39.9991C43.1559 39.9991 43.8493 39.0335 44.2501 38.4928L43.4468 37.8973C43.0307 38.4586 42.6074 38.9991 41.7558 38.9991V39.9991ZM39.2634 38.4929C39.664 39.0332 40.3575 39.9991 41.7558 39.9991V38.9991C40.9062 38.9991 40.4831 38.4589 40.0667 37.8973L39.2634 38.4929ZM39.2606 38.4891L39.2635 38.4929L40.0667 37.8972L40.0638 37.8934L39.2606 38.4891ZM38.8467 38.0313C38.8763 38.0313 38.8802 38.0347 38.874 38.0325C38.8677 38.0303 38.8741 38.0304 38.8985 38.0507C38.9645 38.1057 39.0623 38.2202 39.2598 38.488L40.0646 37.8944C39.8793 37.6431 39.7129 37.4277 39.5386 37.2824C39.3254 37.1048 39.1029 37.0313 38.8467 37.0313V38.0313ZM38.4334 38.4903C38.6319 38.2215 38.7304 38.1061 38.7969 38.0506C38.8215 38.03 38.828 38.0299 38.8213 38.0323C38.8147 38.0346 38.818 38.0313 38.8467 38.0313V37.0313C38.5904 37.0313 38.3684 37.1055 38.1558 37.2831C37.982 37.4283 37.8153 37.6439 37.629 37.8963L38.4334 38.4903ZM35.9376 40.0012C37.3389 40.0012 38.0342 39.0314 38.4335 38.4901L37.6288 37.8964C37.2147 38.4578 36.7893 39.0012 35.9376 39.0012V40.0012ZM33.4433 38.4949C33.8441 39.0356 34.5375 40.0012 35.9376 40.0012V39.0012C35.0859 39.0012 34.6627 38.4606 34.2466 37.8994L33.4433 38.4949ZM33.4404 38.491L33.4433 38.4949L34.2466 37.8994L34.2437 37.8955L33.4404 38.491ZM33.0266 38.0333C33.0562 38.0333 33.0601 38.0368 33.0539 38.0346C33.0476 38.0323 33.054 38.0325 33.0784 38.0528C33.1443 38.1077 33.2422 38.2223 33.4397 38.49L34.2445 37.8965C34.0591 37.6452 33.8928 37.4297 33.7185 37.2845C33.5053 37.1068 33.2828 37.0333 33.0266 37.0333V38.0333ZM32.6127 38.491C32.8117 38.2226 32.9096 38.1078 32.9759 38.0524C33.0003 38.0321 33.0066 38.0321 32.9999 38.0345C32.9934 38.0368 32.9969 38.0333 33.0266 38.0333V37.0333C32.77 37.0333 32.5479 37.1071 32.335 37.2848C32.1616 37.4296 31.9952 37.6448 31.8094 37.8955L32.6127 38.491ZM30.1175 40.0012C31.521 40.0012 32.2143 39.0311 32.6134 38.4901L31.8087 37.8964C31.3943 38.4581 30.971 39.0012 30.1175 39.0012V40.0012ZM27.6252 38.4949C28.0258 39.0353 28.7192 40.0012 30.1175 40.0012V39.0012C29.268 39.0012 28.8448 38.4609 28.4285 37.8994L27.6252 38.4949ZM27.6222 38.491L27.6251 38.4949L28.4285 37.8994L28.4256 37.8955L27.6222 38.491ZM27.2084 38.0333C27.2381 38.0333 27.2419 38.0368 27.2358 38.0346C27.2294 38.0323 27.2359 38.0325 27.2602 38.0528C27.3262 38.1077 27.424 38.2223 27.6215 38.49L28.4263 37.8965C28.241 37.6452 28.0746 37.4297 27.9004 37.2845C27.6871 37.1068 27.4646 37.0333 27.2084 37.0333V38.0333ZM26.7951 38.4923C26.9936 38.2235 27.0922 38.1081 27.1586 38.0526C27.1833 38.032 27.1897 38.032 27.1831 38.0343C27.1765 38.0367 27.1797 38.0333 27.2084 38.0333V37.0333C26.9521 37.0333 26.7302 37.1075 26.5175 37.2852C26.3437 37.4304 26.177 37.646 25.9907 37.8983L26.7951 38.4923ZM24.2994 40.0032C25.7007 40.0032 26.3959 39.0334 26.7953 38.4922L25.9906 37.8985C25.5764 38.4599 25.1511 39.0032 24.2994 39.0032V40.0032ZM21.807 38.497C22.2076 39.0374 22.9011 40.0032 24.2994 40.0032V39.0032C23.4498 39.0032 23.0267 38.463 22.6103 37.9014L21.807 38.497ZM21.8041 38.4931L21.807 38.497L22.6103 37.9014L22.6074 37.8975L21.8041 38.4931ZM21.3903 38.0354C21.4199 38.0354 21.4238 38.0388 21.4176 38.0367C21.4113 38.0344 21.4177 38.0345 21.4421 38.0548C21.5081 38.1098 21.6059 38.2243 21.8034 38.4921L22.6082 37.8986C22.4229 37.6472 22.2565 37.4318 22.0822 37.2866C21.869 37.1089 21.6465 37.0354 21.3903 37.0354V38.0354ZM20.977 38.4944C21.1755 38.2256 21.274 38.1102 21.3405 38.0547C21.3651 38.0341 21.3716 38.034 21.3649 38.0364C21.3583 38.0387 21.3615 38.0354 21.3903 38.0354V37.0354C21.134 37.0354 20.912 37.1096 20.6994 37.2872C20.5255 37.4325 20.3589 37.648 20.1726 37.9004L20.977 38.4944ZM18.4812 40.0053C19.8825 40.0053 20.5778 39.0355 20.9771 38.4942L20.1724 37.9005C19.7583 38.4619 19.3329 39.0053 18.4812 39.0053V40.0053ZM17.1915 39.4195C17.5179 39.7976 17.9822 40.0053 18.4812 40.0053V39.0053C18.2664 39.0053 18.0807 38.9192 17.9485 38.7661L17.1915 39.4195ZM16.859 35.5702C16.7455 36.4247 16.6539 37.1689 16.6679 37.7833C16.682 38.4016 16.8034 38.9731 17.1927 39.4209L17.9473 38.7647C17.7803 38.5727 17.6794 38.279 17.6676 37.7605C17.6557 37.238 17.7345 36.5737 17.8503 35.7019L16.859 35.5702ZM16.8628 35.5412L16.8589 35.571L17.8504 35.701L17.8543 35.6712L16.8628 35.5412ZM17.0261 33.6099C17.0421 33.7899 17.0263 34.1016 16.9899 34.4771C16.9545 34.8415 16.9039 35.2276 16.8628 35.5412L17.8543 35.6712C17.8951 35.3602 17.9479 34.9576 17.9852 34.5737C18.0214 34.2009 18.0474 33.8046 18.0222 33.5213L17.0261 33.6099ZM13.2718 39.2865C13.8063 38.2183 14.5905 36.9479 15.4174 35.9151C15.831 35.3985 16.2464 34.9525 16.6379 34.6226C17.0385 34.285 17.3716 34.1053 17.6209 34.0561L17.4274 33.075C16.932 33.1727 16.4424 33.4796 15.9935 33.8579C15.5356 34.2438 15.0749 34.7429 14.6368 35.2901C13.7605 36.3846 12.9396 37.7159 12.3775 38.8389L13.2718 39.2865ZM12.1129 40.0054C12.6008 40.0054 13.0522 39.7297 13.2727 39.2847L12.3766 38.8408C12.3259 38.9431 12.2231 39.0054 12.1129 39.0054V40.0054ZM12.0024 39.9994C12.0547 40.006 12.1021 40.0054 12.1129 40.0054V39.0054C12.1085 39.0054 12.1065 39.0054 12.1048 39.0054C12.1033 39.0053 12.1035 39.0053 12.1047 39.0054C12.1068 39.0054 12.1154 39.0058 12.1276 39.0073L12.0024 39.9994ZM10.8922 39.1442C11.0672 39.6345 11.518 39.973 12.0365 40.0026L12.0935 39.0042C11.9779 38.9976 11.8745 38.9215 11.8341 38.8082L10.8922 39.1442ZM10.8217 31.1209C9.90387 32.5403 9.91319 34.466 10.1275 36.0061C10.3454 37.5723 10.7958 38.8752 10.8925 39.145L11.8338 38.8074C11.7471 38.5657 11.3222 37.3364 11.1179 35.8683C10.91 34.3741 10.9503 32.7637 11.6614 31.6639L10.8217 31.1209ZM14.0722 29.3281C12.6735 29.4193 11.5298 30.028 10.8219 31.1206L11.6612 31.6643C12.1735 30.8735 13.0078 30.3996 14.1373 30.3259L14.0722 29.3281ZM15.3383 29.033C15.3675 28.9612 15.3752 29.0258 15.1392 29.1228C14.9287 29.2093 14.5852 29.2942 14.0718 29.3281L14.1376 30.3259C14.7228 30.2873 15.1799 30.1872 15.5192 30.0478C15.833 29.9189 16.1398 29.7169 16.2647 29.4096L15.3383 29.033ZM15.1638 28.8703C15.246 28.9643 15.2918 29.0454 15.3116 29.0971C15.3213 29.1223 15.3211 29.1311 15.3206 29.1243C15.32 29.1178 15.3182 29.0825 15.3383 29.033L16.2647 29.4096C16.3657 29.1612 16.3108 28.91 16.2455 28.7395C16.1746 28.5542 16.058 28.3738 15.9168 28.2122L15.1638 28.8703ZM12.2391 28.2086C13.5764 27.8418 14.7027 28.341 15.1633 28.8697L15.9173 28.2128C15.1895 27.3774 13.6599 26.782 11.9746 27.2442L12.2391 28.2086ZM7.35343 34.1777C7.72867 32.7966 8.47765 31.4224 9.38489 30.3273C10.3 29.2228 11.3299 28.4566 12.2385 28.2087L11.9753 27.244C10.7882 27.5679 9.59591 28.5051 8.61483 29.6894C7.6259 30.8831 6.80474 32.3832 6.38841 33.9155L7.35343 34.1777ZM7.78689 37.7919C7.33501 37.3239 7.14902 36.6926 7.11995 36.0157C7.09087 35.3385 7.22187 34.6639 7.35356 34.1772L6.38828 33.916C6.2428 34.4536 6.08567 35.2387 6.12087 36.0586C6.15609 36.8786 6.38681 37.7815 7.06747 38.4865L7.78689 37.7919ZM7.76185 39.6345C8.27196 39.1328 8.2846 38.3105 7.78792 37.793L7.06644 38.4855C7.18386 38.6078 7.18055 38.8036 7.06061 38.9216L7.76185 39.6345ZM5.92311 39.6094C6.42533 40.1292 7.24592 40.1388 7.76072 39.6356L7.06174 38.9205C6.94248 39.0371 6.75822 39.0345 6.64234 38.9146L5.92311 39.6094ZM4.84913 33.4911C4.18516 35.936 4.50891 38.1459 5.92318 39.6094L6.64228 38.9145C5.55623 37.7907 5.20606 35.9925 5.81417 33.7532L4.84913 33.4911ZM11.5586 25.6909C9.95383 26.1283 8.48805 27.3175 7.33194 28.7447C6.17122 30.1777 5.28032 31.902 4.8491 33.4912L5.8142 33.7531C6.20629 32.3081 7.02911 30.7073 8.109 29.3742C9.1935 28.0353 10.4953 27.0172 11.8215 26.6557L11.5586 25.6909ZM17.1155 27.1508C16.0495 25.9269 13.9283 25.0445 11.5584 25.691L11.8216 26.6557C13.8182 26.1111 15.5452 26.8705 16.3614 27.8076L17.1155 27.1508ZM17.7393 30.0273C18.1373 29.0581 17.8592 28.0023 17.115 27.1503L16.3619 27.8081C16.9217 28.4491 17.0343 29.1116 16.8143 29.6474L17.7393 30.0273ZM14.2411 31.9339C15.3254 31.8626 16.1116 31.6101 16.6768 31.2539C17.2476 30.8941 17.5677 30.4443 17.7392 30.0277L16.8144 29.6471C16.7168 29.8844 16.5274 30.166 16.1436 30.4079C15.7543 30.6532 15.1408 30.8726 14.1754 30.9361L14.2411 31.9339ZM12.9987 32.5462C13.225 32.1976 13.5923 31.9767 14.2411 31.9339L14.1754 30.9361C13.2969 30.994 12.5996 31.3243 12.1599 32.0019L12.9987 32.5462ZM12.8575 36.5205C12.7092 35.8064 12.6007 35.0168 12.6072 34.2911C12.6139 33.5535 12.7393 32.9471 12.9991 32.5457L12.1595 32.0024C11.7474 32.6392 11.6146 33.4725 11.6073 34.2821C11.5999 35.1038 11.7217 35.9692 11.8784 36.7239L12.8575 36.5205ZM17.8529 31.4382C16.5517 31.3973 15.3542 32.2116 14.3843 33.1726C13.3973 34.1506 12.5491 35.3771 11.9425 36.3595L12.7934 36.8849C13.3832 35.9296 14.183 34.7798 15.0881 33.883C16.0104 32.9692 16.9493 32.4103 17.8214 32.4377L17.8529 31.4382ZM19.1123 32.0502C18.7961 31.6714 18.3448 31.4552 17.8543 31.4383L17.82 32.4377C18.0314 32.445 18.2141 32.5346 18.3445 32.6909L19.1123 32.0502ZM19.5991 33.3603C19.554 32.878 19.4242 32.4212 19.1111 32.0488L18.3457 32.6924C18.4792 32.8511 18.5688 33.0825 18.6034 33.4534L19.5991 33.3603ZM26.8867 30.5291C22.5936 30.9664 20.3705 31.9581 18.8236 32.991L19.3789 33.8226C20.7669 32.8958 22.8271 31.9478 26.988 31.5239L26.8867 30.5291ZM30.977 0.961935C30.5269 1.49723 21.8181 12.2024 26.4516 31.1453L27.423 30.9077C22.8924 12.3855 31.4109 1.99977 31.7424 1.60548L30.977 0.961935ZM31.0575 0.884449C31.0561 0.885588 31.0311 0.905004 31.0045 0.931781L31.7149 1.63564C31.7043 1.64636 31.695 1.65452 31.6889 1.65974C31.6836 1.66427 31.6791 1.66778 31.6816 1.66585L31.0575 0.884449ZM30.9803 0.96536C31.0021 0.936022 31.0234 0.914675 31.0383 0.901053C31.0508 0.889538 31.0621 0.880784 31.0576 0.884386L31.6815 1.66591C31.682 1.66548 31.6864 1.66198 31.6913 1.65796C31.6966 1.65361 31.7044 1.64695 31.7136 1.63854C31.7326 1.62119 31.7577 1.59584 31.783 1.56181L30.9803 0.96536ZM31.1307 0.812918C31.0947 0.843725 31.0546 0.880303 31.0127 0.926128L31.7506 1.60105C31.7565 1.59455 31.7643 1.58687 31.7801 1.57341L31.1307 0.812918ZM31.2261 0.73606C31.1722 0.772362 31.1307 0.810493 31.1003 0.84122L31.8106 1.54511C31.812 1.54364 31.8024 1.5536 31.7844 1.56576L31.2261 0.73606ZM31.3347 0.67049C31.3115 0.68351 31.2698 0.706684 31.2262 0.736043L31.7843 1.56577C31.7897 1.56218 31.797 1.55779 31.825 1.54203L31.3347 0.67049ZM31.3512 0.661129L31.3341 0.670807L31.8255 1.54171L31.8427 1.53203L31.3512 0.661129ZM31.4422 0.612198C31.387 0.63696 31.3421 0.666197 31.3302 0.673675L31.8637 1.51949C31.868 1.51677 31.8701 1.51548 31.8718 1.5144C31.8733 1.51345 31.8733 1.51349 31.8723 1.51406C31.8704 1.51521 31.8628 1.51951 31.8514 1.52462L31.4422 0.612198ZM31.6402 0.545372C31.5806 0.560396 31.5175 0.580104 31.4513 0.608229L31.8423 1.52859C31.8519 1.52452 31.8646 1.52009 31.8848 1.51499L31.6402 0.545372ZM31.631 0.548677C31.6245 0.550861 31.6302 0.548831 31.6379 0.546623C31.6466 0.544127 31.6656 0.538978 31.6911 0.535295L31.8338 1.52507C31.8961 1.51609 31.9492 1.49667 31.9498 1.49648L31.631 0.548677ZM31.6658 0.537679C31.6488 0.54257 31.6338 0.547728 31.631 0.548675L31.9498 1.49648C31.9526 1.49556 31.9523 1.49564 31.9516 1.49587C31.9507 1.49617 31.9475 1.49721 31.9428 1.49854L31.6658 0.537679ZM31.9718 0.5C31.879 0.5 31.7863 0.509721 31.6949 0.530229L31.9138 1.50599C31.93 1.50235 31.949 1.5 31.9718 1.5V0.5ZM32.1065 0.504316L31.9889 0.500292L31.9547 1.49971L32.0724 1.50373L32.1065 0.504316ZM33.081 0.966853C32.834 0.671607 32.4719 0.504024 32.0895 0.504024V1.50402C32.1775 1.50402 32.2581 1.54168 32.3141 1.60861L33.081 0.966853ZM37.6459 31.001C42.1966 12.1495 33.5304 1.49874 33.0795 0.965053L32.3156 1.61041C32.6463 2.00184 41.1233 12.3341 36.6738 30.7664L37.6459 31.001ZM50.9055 36.3955C50.8503 36.1905 50.4138 34.8508 48.4715 33.4795C46.5359 32.1129 43.1355 30.7363 37.1893 30.3846L37.1303 31.3828C42.9516 31.7272 46.1548 33.0679 47.8948 34.2964C48.7644 34.9104 49.2745 35.5003 49.5671 35.9341C49.7138 36.1515 49.8068 36.3312 49.8633 36.457C49.8916 36.52 49.9107 36.5695 49.9229 36.6035C49.9351 36.638 49.94 36.656 49.9399 36.6556L50.9055 36.3955ZM50.912 36.4314C50.9147 36.4421 50.9165 36.4512 50.9178 36.4583C50.9191 36.4654 50.92 36.4713 50.9206 36.4753C50.9212 36.4793 50.9215 36.4823 50.9217 36.4835C50.9218 36.4846 50.9219 36.4854 50.9217 36.484C50.9216 36.4832 50.9213 36.4801 50.9209 36.4768C50.9205 36.4733 50.9199 36.4681 50.919 36.4619C50.9181 36.4557 50.9169 36.4478 50.9152 36.4386C50.9135 36.4294 50.9112 36.4182 50.9081 36.4055L49.9374 36.6457C49.9347 36.635 49.9329 36.6259 49.9316 36.6188C49.9303 36.6117 49.9294 36.6059 49.9288 36.6019C49.9283 36.598 49.9279 36.595 49.9278 36.5937C49.9276 36.5927 49.9276 36.5919 49.9277 36.5934C49.9278 36.5942 49.9281 36.5972 49.9285 36.6006C49.9289 36.6041 49.9296 36.6093 49.9305 36.6155C49.9313 36.6217 49.9326 36.6297 49.9343 36.639C49.936 36.6482 49.9383 36.6594 49.9414 36.6721L50.912 36.4314ZM50.933 36.5549L50.921 36.4764L49.9324 36.6271L49.9444 36.7056L50.933 36.5549ZM50.9467 36.7147C50.9467 36.6454 50.9369 36.5821 50.9337 36.5601L49.9436 36.7003C49.9447 36.7077 49.9453 36.7126 49.9459 36.7171C49.9465 36.7214 49.9468 36.7239 49.947 36.7253C49.9473 36.7283 49.9467 36.7238 49.9467 36.7147H50.9467ZM50.9439 36.6656C50.9435 36.6623 50.9442 36.6678 50.9448 36.6747C50.9455 36.6824 50.9467 36.6966 50.9467 36.7147H49.9467C49.9467 36.7368 49.948 36.755 49.9491 36.7667C49.9501 36.7776 49.9513 36.7871 49.9514 36.7878L50.9439 36.6656ZM50.9438 36.6648L50.9438 36.6647L49.9515 36.7887L49.9515 36.7888L50.9438 36.6648ZM50.9426 36.6562L50.9426 36.6561L49.9527 36.7975L49.9527 36.7976L50.9426 36.6562ZM50.9486 36.7389C50.9486 36.7168 50.9473 36.6986 50.9462 36.6869C50.9452 36.676 50.944 36.6665 50.9439 36.6657L49.9514 36.788C49.9518 36.7913 49.9511 36.7857 49.9505 36.7788C49.9497 36.7711 49.9486 36.757 49.9486 36.7389H50.9486ZM50.9474 36.7799C50.9482 36.7672 50.9486 36.7535 50.9486 36.7389H49.9486C49.9486 36.7325 49.9488 36.7268 49.9491 36.722L50.9474 36.7799ZM50.9453 36.8076C50.9461 36.7996 50.9468 36.7903 50.9474 36.7802L49.9491 36.7217C49.9494 36.7179 49.9496 36.715 49.9498 36.7133L50.9453 36.8076ZM50.9414 36.8425C50.9421 36.837 50.9439 36.8227 50.9454 36.8071L49.9497 36.7137C49.9499 36.7119 49.95 36.7111 49.9499 36.712C49.9498 36.713 49.9496 36.7144 49.9491 36.7182L50.9414 36.8425ZM50.9408 36.8472L50.9414 36.8424L49.9491 36.7183L49.9485 36.7231L50.9408 36.8472ZM50.9433 36.8223L50.9435 36.8195L49.9458 36.7508L49.9456 36.7536L50.9433 36.8223ZM50.9424 36.8334L50.9424 36.8332L49.9465 36.7427L49.9465 36.7428L50.9424 36.8334ZM50.9238 36.9755C50.938 36.9085 50.9417 36.8442 50.9432 36.8234L49.9457 36.7528C49.9452 36.76 49.9449 36.7648 49.9445 36.7693C49.9442 36.7736 49.9439 36.7762 49.9437 36.7777C49.9436 36.7793 49.9436 36.7791 49.9438 36.7776C49.944 36.7761 49.9446 36.7727 49.9456 36.7678L50.9238 36.9755ZM50.9041 37.0643C50.9092 37.0436 50.9202 37.0001 50.928 36.9531L49.9414 36.7902C49.9415 36.7893 49.9412 36.7911 49.9399 36.7971C49.9384 36.8036 49.9366 36.8109 49.9334 36.8237L50.9041 37.0643ZM50.9068 37.0526L50.9069 37.0525L49.9307 36.8355L49.9306 36.8356L50.9068 37.0526ZM50.8932 37.1033C50.8956 37.0946 50.8964 37.0918 50.897 37.0898L49.9404 36.7984C49.9362 36.8122 49.9326 36.8252 49.9306 36.8322L50.8932 37.1033ZM50.8908 37.1116L50.8908 37.1115L49.933 36.8241L49.9329 36.8242L50.8908 37.1116ZM50.8862 37.126L50.8862 37.126L49.9375 36.8098L49.9375 36.8098L50.8862 37.126ZM50.857 37.2113C50.877 37.1628 50.8895 37.1163 50.8931 37.1035L49.9306 36.8323C49.9292 36.8371 49.9284 36.8399 49.9277 36.8424C49.927 36.8447 49.9268 36.8455 49.9268 36.8454C49.9269 36.8453 49.9274 36.8437 49.9283 36.8411C49.9292 36.8386 49.9306 36.8347 49.9326 36.8298L50.857 37.2113ZM34.8306 32.8625H32.769V33.8625H34.8306V32.8625ZM32.3367 4.519C34.6147 8.43826 38.8432 18.3957 34.3521 33.2175L35.3091 33.5075C39.8984 18.362 35.5849 8.1175 33.2012 4.01648L32.3367 4.519ZM33.269 33.3625V4.26774H32.269V33.3625H33.269ZM31.6739 33.3626V4.47897H30.6739V33.3626H31.6739ZM29.2299 33.8626H31.1739V32.8626H29.2299V33.8626ZM30.7386 4.23291C28.3385 8.47843 24.2509 18.6566 28.7513 33.5076L29.7084 33.2176C25.3042 18.6843 29.3117 8.78907 31.6091 4.72503L30.7386 4.23291ZM47.3792 37.3329L47.3751 37.346L48.33 37.6427L48.3341 37.6297L47.3792 37.3329ZM47.9213 37.9771L47.9219 37.977L47.7913 36.9856L47.7907 36.9857L47.9213 37.9771ZM48.1704 35.9623C47.6615 36.4132 47.4704 37.0372 47.3785 37.3331L48.3335 37.6296C48.4291 37.3219 48.5569 36.9559 48.8336 36.7107L48.1704 35.9623ZM36.7224 32.9746C44.7246 33.3908 47.3465 35.6727 48.1084 36.6449L48.8955 36.0281C47.8914 34.7467 44.9425 32.4008 36.7744 31.9759L36.7224 32.9746ZM36.6529 34.5656C36.8623 33.9032 37.0535 33.2512 37.2305 32.6079L36.2663 32.3426C36.0924 32.975 35.9047 33.6148 35.6994 34.2642L36.6529 34.5656ZM35.4165 35.4762C35.9852 35.4762 36.4825 35.104 36.6529 34.5658L35.6995 34.264C35.6584 34.3937 35.5417 34.4762 35.4165 34.4762V35.4762ZM28.6416 35.4762H35.4165V34.4762H28.6416V35.4762ZM27.4052 34.5657C27.5756 35.1041 28.073 35.4762 28.6416 35.4762V34.4762C28.5164 34.4762 28.3997 34.3937 28.3587 34.2641L27.4052 34.5657ZM26.8679 32.7423C27.0345 33.3397 27.2115 33.9465 27.4048 34.5642L28.3591 34.2656C28.1696 33.6599 27.9956 33.0634 27.8312 32.4737L26.8679 32.7423ZM19.295 35.8814C19.9818 35.3451 20.7488 34.7792 21.9612 34.2825C23.1793 33.7835 24.8691 33.3459 27.3969 33.1058L27.3023 32.1103C24.7038 32.3571 22.9132 32.8118 21.5822 33.3571C20.2454 33.9047 19.3944 34.535 18.6795 35.0932L19.295 35.8814ZM19.4652 35.6913C19.4712 35.6438 19.4769 35.5984 19.483 35.5528L18.4916 35.4218C18.4851 35.4706 18.479 35.5188 18.4731 35.5658L19.4652 35.6913ZM19.4346 35.9246C19.4461 35.8425 19.4559 35.7647 19.4652 35.6913L18.4731 35.5658C18.4637 35.64 18.4546 35.7117 18.4442 35.7865L19.4346 35.9246ZM19.2653 37.8067C19.2442 37.3808 19.3542 36.532 19.4351 35.9211L18.4437 35.7899C18.3691 36.3541 18.2398 37.3162 18.2666 37.8561L19.2653 37.8067ZM18.8953 36.946C18.6406 37.293 18.552 37.3769 18.5105 37.4016L19.0214 38.2612C19.2711 38.1129 19.4776 37.8427 19.7014 37.5377L18.8953 36.946ZM18.8995 36.9403L18.8966 36.9442L19.7 37.5396L19.7029 37.5357L18.8995 36.9403ZM21.3939 35.434C19.9938 35.434 19.3004 36.3996 18.8995 36.9402L19.7028 37.5358C20.119 36.9745 20.5422 36.434 21.3939 36.434V35.434ZM23.8862 36.9402C23.4856 36.3998 22.7922 35.434 21.3939 35.434V36.434C22.2434 36.434 22.6666 36.9742 23.0829 37.5358L23.8862 36.9402ZM23.8892 36.9443L23.8864 36.9404L23.0828 37.5356L23.0857 37.5395L23.8892 36.9443ZM24.303 37.4018C24.2733 37.4018 24.2695 37.3984 24.2756 37.4005C24.282 37.4028 24.2755 37.4027 24.2512 37.3824C24.1852 37.3274 24.0873 37.2129 23.8898 36.9451L23.085 37.5386C23.2704 37.79 23.4367 38.0054 23.611 38.1506C23.8243 38.3283 24.0467 38.4018 24.303 38.4018V37.4018ZM24.7168 36.9441C24.5178 37.2126 24.4199 37.3273 24.3536 37.3827C24.3292 37.4031 24.323 37.4031 24.3296 37.4007C24.3362 37.3984 24.3326 37.4018 24.303 37.4018V38.4018C24.5596 38.4018 24.7816 38.3281 24.9945 38.1503C25.168 38.0055 25.3343 37.7903 25.5201 37.5396L24.7168 36.9441ZM24.7196 36.9403L24.7167 36.9442L25.5202 37.5396L25.523 37.5357L24.7196 36.9403ZM27.214 35.434C25.8139 35.434 25.1205 36.3996 24.7197 36.9402L25.523 37.5358C25.9391 36.9745 26.3623 36.434 27.214 36.434V35.434ZM29.7064 36.9402C29.3057 36.3998 28.6123 35.434 27.214 35.434V36.434C28.0636 36.434 28.4867 36.9742 28.903 37.5358L29.7064 36.9402ZM29.7094 36.9443L29.7065 36.9404L28.9029 37.5356L28.9058 37.5395L29.7094 36.9443ZM30.1231 37.4018C30.0943 37.4018 30.091 37.3985 30.0975 37.4008C30.104 37.4031 30.0975 37.4029 30.0728 37.3824C30.0063 37.327 29.9078 37.2119 29.7092 36.9441L28.9059 37.5396C29.0922 37.7909 29.2589 38.0059 29.4327 38.1506C29.6452 38.3277 29.8669 38.4018 30.1231 38.4018V37.4018ZM30.5369 36.9441C30.3379 37.2126 30.2401 37.3273 30.1737 37.3827C30.1494 37.4031 30.1431 37.4031 30.1498 37.4007C30.1563 37.3984 30.1527 37.4018 30.1231 37.4018V38.4018C30.3797 38.4018 30.6018 38.3281 30.8147 38.1503C30.9881 38.0055 31.1544 37.7903 31.3403 37.5396L30.5369 36.9441ZM33.0322 35.434C31.6287 35.434 30.9354 36.4041 30.5363 36.945L31.3409 37.5387C31.7553 36.9771 32.1786 36.434 33.0322 36.434V35.434ZM35.5245 36.9402C35.1239 36.3999 34.4304 35.434 33.0322 35.434V36.434C33.8817 36.434 34.3048 36.9742 34.7212 37.5358L35.5245 36.9402ZM35.5273 36.944L35.5244 36.9401L34.7212 37.5358L34.7241 37.5397L35.5273 36.944ZM35.9432 37.4039C35.9136 37.4039 35.9098 37.4004 35.916 37.4026C35.9224 37.4049 35.9158 37.4047 35.8913 37.3843C35.8249 37.3289 35.7265 37.2137 35.5279 36.9449L34.7235 37.5389C34.9098 37.7912 35.0766 38.007 35.2509 38.1524C35.4643 38.3303 35.6868 38.4039 35.9432 38.4039V37.4039ZM36.3571 36.9462C36.1581 37.2146 36.0602 37.3294 35.9939 37.3848C35.9695 37.4051 35.9632 37.4051 35.9699 37.4027C35.9764 37.4004 35.9728 37.4039 35.9432 37.4039V38.4039C36.1998 38.4039 36.4219 38.3301 36.6348 38.1524C36.8082 38.0076 36.9746 37.7924 37.1604 37.5417L36.3571 36.9462ZM36.36 36.9422L36.3571 36.9461L37.1603 37.5418L37.1632 37.5379L36.36 36.9422ZM38.8543 35.4361C37.4542 35.4361 36.7608 36.4016 36.3599 36.9423L37.1632 37.5379C37.5794 36.9766 38.0026 36.4361 38.8543 36.4361V35.4361ZM41.3466 36.9423C40.946 36.4019 40.2526 35.4361 38.8543 35.4361V36.4361C39.7038 36.4361 40.127 36.9762 40.5433 37.5378L41.3466 36.9423ZM41.3495 36.9461L41.3466 36.9422L40.5433 37.5378L40.5462 37.5417L41.3495 36.9461ZM41.7633 37.4039C41.7337 37.4039 41.7299 37.4004 41.736 37.4026C41.7424 37.4049 41.7359 37.4047 41.7116 37.3844C41.6456 37.3295 41.5477 37.215 41.3502 36.9472L40.5454 37.5407C40.7308 37.792 40.8971 38.0075 41.0714 38.1527C41.2847 38.3304 41.5071 38.4039 41.7633 38.4039V37.4039ZM42.1786 36.9449C41.9801 37.2137 41.8817 37.3289 41.8153 37.3843C41.7907 37.4047 41.7842 37.4049 41.7906 37.4026C41.7968 37.4004 41.7929 37.4039 41.7633 37.4039V38.4039C42.0198 38.4039 42.2422 38.3302 42.4556 38.1523C42.63 38.007 42.7968 37.7911 42.9831 37.5389L42.1786 36.9449ZM44.6744 35.434C43.2731 35.434 42.5778 36.4038 42.1785 36.945L42.9832 37.5387C43.3974 36.9774 43.8227 36.434 44.6744 36.434V35.434ZM47.1687 36.9402C46.7679 36.3995 46.0745 35.434 44.6744 35.434V36.434C45.5261 36.434 45.9493 36.9745 46.3654 37.5358L47.1687 36.9402ZM47.1717 36.9441L47.1688 36.9403L46.3654 37.5357L46.3683 37.5396L47.1717 36.9441ZM47.5855 37.4018C47.5567 37.4018 47.5534 37.3985 47.5599 37.4008C47.5664 37.4031 47.5599 37.4029 47.5352 37.3824C47.4687 37.327 47.3702 37.2119 47.1716 36.9441L46.3683 37.5396C46.5546 37.7909 46.7213 38.0059 46.895 38.1506C47.1076 38.3277 47.3293 38.4018 47.5855 38.4018V37.4018ZM47.7071 37.8877C47.5052 37.4303 47.5054 37.4302 47.5056 37.4301C47.5057 37.4301 47.5059 37.43 47.5061 37.4299C47.5064 37.4298 47.5067 37.4296 47.507 37.4295C47.5076 37.4292 47.5082 37.429 47.5089 37.4287C47.5101 37.4282 47.5113 37.4277 47.5125 37.4272C47.5149 37.4261 47.5172 37.4252 47.5196 37.4242C47.5242 37.4224 47.5287 37.4206 47.533 37.419C47.5417 37.4159 47.5496 37.4133 47.5568 37.4111C47.5711 37.4068 47.5823 37.4043 47.5897 37.403C47.6043 37.4003 47.6045 37.4018 47.5855 37.4018V38.4018C47.6562 38.4018 47.7172 38.3963 47.7702 38.3866C47.7967 38.3817 47.8215 38.3757 47.8446 38.3688C47.8562 38.3653 47.8673 38.3616 47.8781 38.3576C47.8834 38.3557 47.8887 38.3536 47.8939 38.3515C47.8964 38.3505 47.899 38.3495 47.9015 38.3484C47.9028 38.3479 47.904 38.3473 47.9053 38.3468C47.9059 38.3465 47.9065 38.3462 47.9072 38.346C47.9075 38.3458 47.9078 38.3457 47.9081 38.3456C47.9083 38.3455 47.9085 38.3454 47.9086 38.3453C47.9088 38.3452 47.909 38.3451 47.7071 37.8877ZM47.375 37.3462C47.3534 37.4158 47.3288 37.4949 47.3057 37.5613C47.294 37.5948 47.2851 37.6178 47.2795 37.6311C47.2766 37.6378 47.2769 37.6366 47.2802 37.6303C47.282 37.6269 47.2859 37.6196 47.2922 37.6098C47.2979 37.6008 47.3095 37.5834 47.3272 37.5626L48.087 38.2128C48.1526 38.1361 48.1896 38.0462 48.1993 38.0235C48.2177 37.9803 48.235 37.9331 48.2499 37.8906C48.2797 37.805 48.3095 37.7088 48.3301 37.6426L47.375 37.3462Z" fill="#222532"/>
<path d="M6.04566 26.2317C5.94398 26.109 5.01884 25.0405 3.8345 25.0405C3.2862 25.0405 2.50259 25.2679 1.88651 26.3484L1.19861 27.5557H7.15017L6.04566 26.2317Z" fill="white" stroke="#222532"/>
<path fill-rule="evenodd" clip-rule="evenodd" d="M4.49881 29.1471L5.3183 29.2336L5.21466 30.0586C4.91356 32.288 2.58474 34.6401 2.48505 34.7407L1.40637 35.8192L1.13919 34.3101C0.822165 32.5355 1.04747 31.1712 1.80713 30.2557C2.86984 28.9741 4.49881 29.1471 4.49881 29.1471ZM3.03333 31.2881C2.89176 31.4571 2.78609 31.6724 2.71232 31.9259L2.71232 31.9259C2.8818 31.6704 3.04529 31.4027 3.18486 31.1331C3.13302 31.1794 3.08118 31.2297 3.03333 31.2881Z" fill="white"/>
<path d="M5.3183 29.2336L5.8144 29.296L5.87798 28.7899L5.3708 28.7364L5.3183 29.2336ZM4.49881 29.1471L4.446 29.6443L4.44632 29.6443L4.49881 29.1471ZM5.21466 30.0586L5.71018 30.1255L5.71076 30.1209L5.21466 30.0586ZM2.48505 34.7407L2.83858 35.0943L2.84021 35.0926L2.48505 34.7407ZM1.40637 35.8192L0.914025 35.9064L1.08131 36.8513L1.75989 36.1728L1.40637 35.8192ZM1.13919 34.3101L1.63153 34.223L1.6314 34.2222L1.13919 34.3101ZM1.80713 30.2557L2.19191 30.575L2.19204 30.5749L1.80713 30.2557ZM2.71232 31.9259L2.23223 31.7862L2.1775 31.9743L2.2651 32.1495L2.71232 31.9259ZM3.03333 31.2881L3.41666 31.6091L3.41994 31.6051L3.03333 31.2881ZM2.71232 31.9259L2.26511 32.1495L2.65149 32.9223L3.12901 32.2023L2.71232 31.9259ZM3.18486 31.1331L3.6289 31.363L2.85191 30.7601L3.18486 31.1331ZM5.3708 28.7364L4.55131 28.6499L4.44632 29.6443L5.26581 29.7309L5.3708 28.7364ZM5.71076 30.1209L5.8144 29.296L4.8222 29.1713L4.71856 29.9962L5.71076 30.1209ZM2.84021 35.0926C2.89834 35.034 3.52603 34.3996 4.18026 33.4899C4.82507 32.5932 5.54269 31.3654 5.71016 30.1255L4.71915 29.9916C4.58552 30.9811 3.98818 32.0441 3.36839 32.906C2.75802 33.7548 2.17145 34.3468 2.12989 34.3888L2.84021 35.0926ZM1.75989 36.1728L2.83858 35.0943L2.13153 34.3871L1.05284 35.4656L1.75989 36.1728ZM0.646848 34.3973L0.914025 35.9064L1.89871 35.7321L1.63153 34.223L0.646848 34.3973ZM1.42236 29.9365C0.528869 31.0132 0.317514 32.5537 0.646983 34.3981L1.6314 34.2222C1.32682 32.5172 1.56607 31.3293 2.19191 30.575L1.42236 29.9365ZM4.49881 29.1471C4.55163 28.6499 4.55142 28.6499 4.5512 28.6499C4.55112 28.6498 4.55089 28.6498 4.55073 28.6498C4.55041 28.6498 4.55006 28.6497 4.54968 28.6497C4.54893 28.6496 4.54807 28.6495 4.54712 28.6494C4.54521 28.6492 4.5429 28.649 4.54019 28.6488C4.53478 28.6483 4.52779 28.6477 4.51929 28.647C4.50229 28.6457 4.47922 28.6441 4.45062 28.6427C4.39347 28.64 4.31393 28.638 4.21645 28.6402C4.02215 28.6446 3.75285 28.6656 3.44567 28.7321C2.83204 28.865 2.04535 29.1851 1.42223 29.9366L2.19204 30.5749C2.63163 30.0447 3.19077 29.8105 3.65731 29.7095C3.89021 29.659 4.09457 29.6432 4.23891 29.64C4.31076 29.6384 4.36678 29.6399 4.40287 29.6416C4.42089 29.6425 4.43385 29.6434 4.44123 29.6439C4.44492 29.6442 4.44721 29.6444 4.44802 29.6445C4.44843 29.6446 4.44847 29.6446 4.44814 29.6445C4.44797 29.6445 4.44771 29.6445 4.44735 29.6444C4.44718 29.6444 4.44697 29.6444 4.44675 29.6444C4.44663 29.6444 4.44645 29.6444 4.44639 29.6443C4.4462 29.6443 4.446 29.6443 4.49881 29.1471ZM3.1924 32.0656C3.25217 31.8602 3.33038 31.7121 3.41664 31.6091L2.65001 30.967C2.45314 31.2021 2.32 31.4846 2.23223 31.7862L3.1924 32.0656ZM3.15953 31.7023L3.15953 31.7023L2.2651 32.1495L2.26511 32.1495L3.15953 31.7023ZM2.74083 30.9033C2.61197 31.1522 2.45861 31.4038 2.29563 31.6496L3.12901 32.2023C3.30499 31.9369 3.47862 31.6533 3.6289 31.363L2.74083 30.9033ZM3.41994 31.6051C3.44518 31.5744 3.47626 31.5432 3.51782 31.5061L2.85191 30.7601C2.78978 30.8156 2.71718 30.8851 2.64671 30.971L3.41994 31.6051Z" fill="#222532"/>
<path fill-rule="evenodd" clip-rule="evenodd" d="M10.6394 24.6679C10.6394 25.5089 9.95949 26.193 9.12607 26.193C8.29264 26.193 7.61475 25.5089 7.61475 24.6679C7.61475 23.8268 8.29264 23.1427 9.12607 23.1427C9.96148 23.1427 10.6394 23.8268 10.6394 24.6679ZM9.2098 24.6679C9.2098 24.6216 9.17192 24.5834 9.12606 24.5834C9.0802 24.5834 9.04431 24.6216 9.04431 24.6679C9.04431 24.7604 9.2098 24.7604 9.2098 24.6679Z" fill="white"/>
<path d="M9.12607 26.693C10.2391 26.693 11.1394 25.7816 11.1394 24.6679H10.1394C10.1394 25.2362 9.67991 25.693 9.12607 25.693V26.693ZM7.11475 24.6679C7.11475 25.7807 8.01221 26.693 9.12607 26.693V25.693C8.57307 25.693 8.11475 25.2371 8.11475 24.6679H7.11475ZM9.12607 22.6427C8.01221 22.6427 7.11475 23.555 7.11475 24.6679H8.11475C8.11475 24.0986 8.57307 23.6427 9.12607 23.6427V22.6427ZM11.1394 24.6679C11.1394 23.5545 10.2415 22.6427 9.12607 22.6427V23.6427C9.68148 23.6427 10.1394 24.0991 10.1394 24.6679H11.1394ZM9.12606 25.0834C8.89149 25.0834 8.7098 24.8934 8.7098 24.6679H9.7098C9.7098 24.3498 9.45235 24.0834 9.12606 24.0834V25.0834ZM9.54431 24.6679C9.54431 24.8776 9.37611 25.0834 9.12606 25.0834V24.0834C8.78429 24.0834 8.54431 24.3657 8.54431 24.6679H9.54431ZM8.7098 24.6679C8.7098 24.5217 8.78352 24.3948 8.88504 24.3191C8.97225 24.2541 9.06242 24.2373 9.12706 24.2373C9.19169 24.2373 9.28186 24.2541 9.36907 24.3191C9.47059 24.3948 9.54431 24.5217 9.54431 24.6679H8.54431C8.54431 24.8604 8.63872 25.0219 8.77127 25.1208C8.88951 25.2089 9.02105 25.2373 9.12706 25.2373C9.23306 25.2373 9.3646 25.2089 9.48285 25.1208C9.61539 25.0219 9.7098 24.8604 9.7098 24.6679H8.7098Z" fill="#222532"/>
</svg>
