<svg width="17" height="36" fill="none" xmlns="http://www.w3.org/2000/svg"><path fill-rule="evenodd" clip-rule="evenodd" d="M1 16.718C1 6.148 6.422.445 8.639.444c2.217 0 7.639 5.703 7.639 16.274 0 10.68-4.743 17.92-4.945 18.224l-.196.295H6.141l-.197-.295C5.744 34.639 1 27.398 1 16.718zM7.945 1.934zm0 0v17.59h1.389V1.934c1.777 1.283 5.555 5.947 5.555 14.784 0 2.95-.384 5.64-.93 7.99-.804-.925-2.282-2.183-4.974-3.426-6.547-3.023-6.467-7.175-6.462-7.35h-.002C3.204 6.888 6.365 3.075 7.945 1.934zm-5.42 17.727a33.579 33.579 0 01-.113-2.042c.993 1.491 2.755 3.193 5.883 4.638 4.446 2.053 5.207 4.084 5.226 4.135v.001a36.26 36.26 0 01-1.087 3.25c-.585-.837-1.616-1.867-3.437-2.744-5.485-2.638-6.35-6.467-6.472-7.239zm6.808 14.454h.96c.276-.46.835-1.446 1.47-2.863-.135-.467-.784-2.093-3.478-3.39-2.45-1.179-4.061-2.583-5.125-3.9 1.137 5.384 3.2 9.112 3.824 10.153h.96v-3.929h1.39v3.929z" fill="#fff"/><path d="M8.639.444V.32v.125zm2.694 34.498l.104.07-.104-.07zm-.196.295v.125h.067l.037-.056-.104-.07zm-4.996 0l-.104.069.037.056h.067v-.125zm-.197-.295l-.104.07.104-.07zm2-33.008l-.032-.12-.092.025v.095h.125zm0 0l.074.102-.106-.222.033.12zm0 17.59H7.82v.125h.125v-.125zm1.39 0v.125h.125v-.125h-.125zm0-17.59l.073-.101-.198-.143v.244h.125zm4.625 22.774l-.095.082.16.184.056-.238-.121-.028zm-4.974-3.426l-.053.113.053-.113zm-6.462-7.35l.125.004.004-.13h-.129v.126zm-.002 0l-.124-.012-.013.137h.137v-.125zm-.109 3.687l.104-.069-.241-.362.012.435.125-.004zm.113 2.041l-.125.012.001.008.124-.02zm5.77 2.597l-.052.113.052-.113zm5.226 4.135l.117-.043-.117.043zm0 .001l.12.034.012-.04-.015-.038-.117.044zm-1.087 3.25l-.102.072.134.192.085-.218-.117-.045zM8.997 26.9l.054-.112-.054.113zm1.297 7.216v.125h.241l-.14-.198-.101.073zm-.96 0h-.126v.125h.125v-.125zm.96 0l-.108-.065-.042.07.047.067.102-.073zm1.47-2.863l.114.052.019-.042-.013-.044-.12.034zm-3.48-3.39l-.054.114.055-.113zm-5.124-3.9l.097-.078-.22.105.123-.026zm3.824 10.153l-.107.064.037.06h.07v-.124zm.96 0v.125h.126v-.125h-.125zm0-3.929v-.125H7.82v.125h.125zm1.39 0h.124v-.125h-.125v.125zM8.638.32c-.6 0-1.383.381-2.21 1.087-.832.71-1.726 1.765-2.548 3.148C2.236 7.32.875 11.41.875 16.718h.25c0-5.264 1.35-9.31 2.97-12.037.811-1.363 1.688-2.395 2.496-3.085C7.404.902 8.13.57 8.64.569V.32zm7.764 16.4c0-5.308-1.361-9.398-3.006-12.165-.822-1.384-1.716-2.438-2.548-3.148C10.022.7 9.24.32 8.64.319v.25c.509 0 1.235.333 2.048 1.027.808.69 1.685 1.721 2.495 3.085 1.62 2.727 2.97 6.773 2.97 12.037h.25zm-4.965 18.29c.208-.312 4.966-7.577 4.966-18.293h-.25c0 10.645-4.728 17.86-4.924 18.155l.208.138zm-.196.295l.196-.295-.208-.138-.196.294.208.139zm-5.1.056h4.996v-.25H6.141v.25zm-.3-.35l.196.294.208-.139-.197-.294-.208.138zM.874 16.717c0 10.716 4.758 17.98 4.965 18.293l.209-.138c-.196-.294-4.924-7.51-4.924-18.155h-.25zM7.82 1.934h.25-.25zm.092-.12l.066.24-.066-.24zm.106.222l-.146-.203.146.203zm.052 17.488V1.934h-.25v17.59h.25zm1.264-.125h-1.39v.25h1.39v-.25zM9.209 1.934v17.59h.25V1.934h-.25zm5.805 14.784c0-8.872-3.793-13.577-5.607-14.885l-.147.203c1.742 1.256 5.504 5.88 5.504 14.682h.25zm-.934 8.018c.549-2.358.934-5.058.934-8.018h-.25c0 2.938-.382 5.62-.927 7.962l.243.056zm-5.148-3.34c2.68 1.236 4.142 2.485 4.932 3.394l.189-.164c-.817-.94-2.31-2.208-5.016-3.458l-.105.227zm-6.534-7.468c-.003.103-.022 1.209.79 2.671.812 1.464 2.45 3.275 5.744 4.796l.105-.227c-3.252-1.502-4.847-3.278-5.63-4.69-.785-1.413-.761-2.47-.76-2.542l-.249-.008zm.123.129h.002v-.25h-.002v.25zm5.35-12.224C6.26 2.997 3.082 6.845 2.397 13.92l.249.024C3.325 6.932 6.47 3.153 8.018 2.036l-.147-.203zm-5.584 15.79c.02.696.054 1.38.113 2.049l.25-.023a33.453 33.453 0 01-.113-2.033l-.25.007zm6.06 4.52c-3.109-1.436-4.852-3.123-5.831-4.593l-.208.139c1.007 1.512 2.788 3.228 5.935 4.681l.105-.226zm5.291 4.206c-.032-.086-.819-2.14-5.29-4.205l-.105.227c4.42 2.04 5.155 4.049 5.16 4.065l.235-.087zm0 0l-.234.087.234-.087zm-1.087 3.34c.374-.963.749-2.057 1.09-3.262l-.24-.068a36.103 36.103 0 01-1.083 3.24l.233.09zm-3.608-2.677c1.802.868 2.816 1.884 3.389 2.703l.205-.143c-.598-.856-1.646-1.9-3.486-2.785l-.108.225zM2.4 19.68c.126.801 1.012 4.671 6.542 7.332l.108-.225c-5.439-2.617-6.286-6.405-6.403-7.146l-.247.039zm7.893 14.31h-.96v.25h.96v-.25zm-.103.197l.205-.145-.205.145zm1.46-2.987a27.6 27.6 0 01-1.464 2.849l.215.129a27.73 27.73 0 001.477-2.876l-.228-.102zm-3.42-3.225c2.66 1.28 3.288 2.876 3.414 3.311l.24-.07c-.145-.498-.816-2.154-3.545-3.467l-.108.226zm-5.167-3.934c1.076 1.33 2.702 2.746 5.167 3.933l.109-.225c-2.433-1.172-4.03-2.564-5.082-3.866l-.194.157zM7.092 34.05c-.62-1.033-2.676-4.747-3.81-10.113l-.244.052c1.14 5.4 3.21 9.141 3.84 10.19l.214-.129zm.853-.06h-.96v.25h.96v-.25zm-.125-3.804v3.929h.25v-3.929h-.25zm1.513-.125H7.945v.25h1.388v-.25zm.125 4.054v-3.929h-.25v3.929h.25z" fill="#000"/></svg>