<svg width="51" height="41" fill="none" xmlns="http://www.w3.org/2000/svg"><path fill-rule="evenodd" clip-rule="evenodd" d="M50.395 37.02a.438.438 0 01-.03.071.146.146 0 01-.048.062l-.009.014-.019.027-.013.02-.052.062-.007.007-.018.017-.01.01-.015.014a.548.548 0 01-.124.093l-.013.006-.017.01a.655.655 0 01-.042.022.403.403 0 01-.052.021l-.013.005-.01.004-.016.007a.167.167 0 01-.04.012h-.007l-.007.001a.757.757 0 01-.191.026c-.09 0-.122.014-.122.014-.037.043-.103.258-.146.394l-.004.013c-.155.503-.48 1.55-1.794 1.55-1.124 0-1.682-.754-2.09-1.305l-.004-.004c-.383-.52-.528-.662-.815-.662-.287 0-.43.141-.816.66l-.002.004c-.409.551-.967 1.304-2.093 1.304-1.124 0-1.682-.753-2.09-1.304l-.004-.004c-.383-.519-.528-.66-.815-.66-.285 0-.431.141-.816.662-.407.552-.967 1.308-2.093 1.308s-1.685-.753-2.093-1.304l-.003-.004c-.383-.519-.528-.66-.815-.66-.288 0-.431.141-.816.66-.407.552-.965 1.308-2.093 1.308-1.124 0-1.683-.753-2.091-1.304l-.003-.004c-.383-.519-.529-.66-.816-.66-.285 0-.43.141-.815.662-.407.552-.967 1.308-2.094 1.308-1.124 0-1.682-.753-2.09-1.304l-.003-.004c-.383-.519-.529-.66-.816-.66-.285 0-.43.141-.815.662-.407.552-.967 1.308-2.094 1.308-.357 0-.682-.147-.911-.412-.556-.64-.445-1.73-.215-3.457l.004-.03c.081-.624.206-1.577.165-2.04-1.49.293-3.603 3.305-4.7 5.497a.795.795 0 01-.711.442c-.016 0-.032 0-.048-.002a.794.794 0 01-.702-.527c-.183-.511-1.75-5.064-.121-7.584.61-.941 1.599-1.482 2.863-1.565 1.098-.072 1.6-.37 1.697-.606.063-.157-.038-.424-.262-.68-.594-.682-1.922-1.23-3.433-.815-2.096.572-4.445 3.407-5.236 6.32-.277 1.025-.576 2.92.556 4.093.307.32.3.83-.016 1.14a.792.792 0 01-1.128-.017c-1.25-1.294-1.587-3.298-.951-5.64.823-3.034 3.427-6.65 6.358-7.449 2.183-.595 4.107.226 5.048 1.306.652.747.848 1.606.539 2.358-.27.654-1.02 1.463-3.069 1.598-.763.05-1.296.326-1.629.839-.672 1.038-.516 2.88-.211 4.348 1.196-1.938 3.296-4.752 5.47-4.684a1.2 1.2 0 01.89.433c.224.265.333.61.373 1.036 1.468-.98 3.61-1.95 7.836-2.38-4.582-18.734 4.033-29.28 4.423-29.743l.01-.009a.328.328 0 01.136-.124c.024-.017.048-.03.074-.045l.017-.01a.4.4 0 01.05-.028.78.78 0 01.116-.038c.009-.001.018-.004.027-.007A.764.764 0 0131.971 1l.119.004a.79.79 0 01.608.284c.39.462 8.962 10.954 4.462 29.596 11.767.696 13.207 5.434 13.263 5.642l.004.026.012.078a.605.605 0 01.009.097.097.097 0 010 .024.28.28 0 010 .01l-.003.02v.007a.834.834 0 01-.026.156 1.054 1.054 0 00-.007.024.468.468 0 01-.017.053zm-17.626-3.658h2.062c4.54-14.983.269-25.084-2.062-29.094v29.094zM31.174 4.48v28.884H29.23c-4.452-14.693-.405-24.73 1.944-28.884zm16.679 33.015l.004-.013h-.001c.094-.302.253-.796.646-1.145-.883-1.126-3.668-3.44-11.754-3.86a53.656 53.656 0 01-.572 1.939.8.8 0 01-.76.561h-6.774a.799.799 0 01-.76-.561 59.661 59.661 0 01-.532-1.807c-5.127.487-6.961 1.785-8.363 2.88l-.018.14-.03.227c-.077.588-.197 1.494-.173 1.976.146-.086.293-.263.532-.59l.003-.003c.409-.55.967-1.304 2.093-1.304 1.124 0 1.682.753 2.09 1.304l.003.004c.383.519.529.66.816.66.287 0 .43-.141.816-.66l.002-.004c.409-.55.967-1.304 2.093-1.304 1.124 0 1.682.753 2.09 1.304l.004.004c.384.519.53.66.815.66.287 0 .43-.141.816-.66.406-.551.965-1.308 2.093-1.308 1.124 0 1.682.753 2.09 1.304l.004.004c.385.521.53.662.817.662.287 0 .43-.14.816-.66l.003-.004c.408-.55.966-1.304 2.092-1.304 1.124 0 1.682.753 2.091 1.304l.003.004c.383.519.528.66.815.66.288 0 .433-.141.818-.662.407-.551.967-1.308 2.093-1.308s1.685.753 2.093 1.304l.003.004c.385.519.53.66.816.66.09 0 .121-.014.121-.014.037-.043.103-.258.146-.394z" fill="#fff"/><path d="M50.365 37.091l-.44-.238.757.624-.317-.386zm.03-.07l-.462-.191-.007.017-.006.017.475.157zm-.03.07l.448.222-.765-.609.317.387zm-.048.062l-.279-.415-.084.057-.055.084.418.274zm-.009.014l.414.28.005-.006-.419-.274zm-.019.027l-.406-.292-.001.002.407.29zm-.013.02l.391.31.009-.01.007-.011-.407-.29zm-.052.062l.355.352.01-.01.008-.01-.373-.332zm-.007.007l.352.355.003-.003-.355-.352zm-.018.017l.347.36.006-.005-.353-.355zm-.01.01l.345.362.003-.002-.347-.36zm-.015.014l-.334-.372-.01.01-.011.01.355.352zm-.064.054l.28.415.008-.005.008-.006-.296-.404zm-.06.039l.233.442.013-.007.013-.008-.259-.427zm-.013.006l-.232-.442-.01.005.242.438zm-.017.01l-.242-.438-.002.002.244.436zm-.042.022l-.21-.453-.008.003-.007.003.225.447zm-.052.021l-.171-.47-.008.003-.007.003.186.464zm0 0l.171.47.007-.002.007-.003-.185-.465zm-.013.005l.174.469-.174-.469zm-.01.004l.177.468.004-.002-.181-.466zm-.016.007l.201.457-.2-.457zm-.032.011l-.11-.488-.012.003.122.485zm-.008.001l-.014-.5h-.001l.015.5zm-.003 0v-.5h-.006l.006.5zm-.004 0l-.006-.5h-.011l.017.5zm-.007.001l-.122-.485-.004.001.126.484zm-.313.04l-.202-.457-.104.046-.074.086.38.325zm-.146.394l-.477-.148.477.148zm-.004.013l-.477-.148.477.148zm-3.885.245l.402-.298-.402.298zm-.003-.004l-.403.296.002.002.401-.298zm-1.63-.002l-.402-.297.401.297zm-.003.004l.401.298-.401-.298zm-4.184 0l.402-.298-.402.298zm-.003-.004l-.402.297v.001l.402-.298zm-1.63.002l-.403-.297.402.297zm-4.187.004l-.402.298.402-.298zm-.003-.004l-.402.297v.001l.402-.298zm-1.63 0l-.403-.297.402.297zm-4.185.004l-.402.298.402-.298zm-.003-.004l-.402.297v.001l.402-.298zm-1.631.002l-.402-.297.402.297zm-4.184.004l.401-.298-.401.298zm-.003-.004l-.403.297.001.001.402-.298zm-1.631.002l-.402-.297.402.297zm-3.005.896l.378-.327v-.001l-.378.328zm-.215-3.457l.495.066V35.7l-.495-.065zm.004-.03l-.496-.065.496.065zm.165-2.04l.498-.045-.05-.553-.545.107.097.49zm-4.7 5.497l-.447-.224v.002l.448.222zm-.759.44l.063-.496-.017-.002h-.018l-.028.498zm-.702-.527l.471-.168-.47.168zm-.121-7.584l-.42-.271.42.271zm2.863-1.565l.032.499-.032-.499zm1.697-.606l.463.189-.463-.189zm-.262-.68l-.377.329.377-.329zm-3.433-.815l.132.483-.132-.483zm-5.236 6.32l-.483-.13.483.13zm.556 4.093l.36-.346v-.001l-.36.347zm-.016 1.14l.35.357v-.002l-.35-.356zm-1.128-.017l.36-.347-.36.347zm-.951-5.64l.482.131-.482-.13zm6.358-7.449l.132.483-.132-.483zm5.048 1.306l-.377.329.377-.329zm.539 2.358l.462.19-.462-.19zm-3.069 1.598l-.033-.499.033.499zm-1.629.839l-.42-.272.42.272zm-.211 4.348l-.49.102.256 1.23.66-1.07-.426-.262zm5.47-4.684l.016-.5h-.001l-.016.5zm.89.433l-.384.32.002.001.382-.321zm.373 1.036l-.498.046.078.835.698-.465-.278-.416zm7.836-2.38l.051.497.572-.058-.137-.558-.486.118zM31.36 1.284l-.355-.352-.015.014-.013.016.383.322zm.01-.009l-.312-.39.311.39zm.012-.011l-.37-.338-.017.019-.015.02.402.299zm.073-.07l.325.38.016-.014.015-.015-.356-.352zm.05-.043l-.279-.415.28.415zm.075-.045l.245.436-.245-.436zm.017-.01l.246.436.01-.006.01-.007-.266-.422zm.05-.028l-.196-.46-.009.004.205.456zm.116-.038L31.69.535l-.026.004-.025.006.122.485zm.027-.007l-.159-.474.16.474zm.014-.005l-.11-.488-.014.004-.014.004.138.48zM31.972 1l.017-.5h-.017V1zm.117.004l-.017.5h.017v-.5zm.609.284l-.384.32.002.002.382-.322zm4.462 29.596l-.486-.118-.14.582.596.035.03-.5zm13.263 5.642l.485-.12-.002-.01-.483.13zm.004.026l.494-.076-.004-.022-.005-.023-.485.12zm.012.078l.495-.07-.001-.005-.494.075zm.009.097l-.497.06v.002l.497-.062zm0 0l-.497.062.002.008.495-.07zm0 0l.496-.061-.001-.01-.495.07zm0 .024l.5.03v-.001l-.5-.03zm0 .01l-.498-.048.497.047zm-.003.02l-.496-.063.496.062zm0 .004l-.496-.062-.002.014-.001.014.499.034zm0 .003l.498.045v-.01l-.498-.035zm0 0l-.499-.045v.01l.498.035zm-.01.084l-.49-.104-.002.01-.002.012.494.082zm-.016.072l-.486-.12-.002.012.488.108zm0 0l.478.146.006-.019.004-.018-.488-.109zm-.007.024l.479.143.002-.008-.481-.135zm0 0l.474.158.003-.007.002-.007-.48-.144zm0 0l-.474-.158-.004.011-.003.011.48.136zM34.83 33.362v.5h.37l.108-.355-.478-.145zm-2.062 0h-.5v.5h.5v-.5zm0-29.094l.432-.252-.932-1.604v1.856h.5zm-1.595 29.095v.5h.5v-.5h-.5zm0-28.884h.5v-1.9l-.935 1.654.435.246zM29.23 33.363l-.479.145.108.355h.37v-.5zm18.627 4.118l.477.149.232-.747-.775.103.066.495zm-.004.013l-.478-.148.478.148zm.003-.013l-.477-.148-.232.746.774-.102-.065-.496zm.646-1.145l.332.375.352-.313-.29-.37-.394.309zm-11.754-3.86l.026-.5-.401-.021-.107.388.482.132zm-.572 1.939l.477.15-.477-.15zm-8.294 0l-.477.15.477-.15zm-.532-1.807l.481-.134-.112-.403-.417.04.048.497zm-8.363 2.88l-.307-.395-.162.126-.026.203.495.065zm-.018.14l-.496-.062.496.063zm-.03.227l-.495-.069v.004l.495.066zm-.173 1.976l-.5.025.042.83.713-.425-.255-.43zm.532-.59l-.401-.297-.002.002.403.296zm.003-.003l-.401-.298.401.298zm4.184 0l.401-.298-.401.298zm.002.004l.403-.297-.403.297zm1.632 0l.401.298-.401-.298zm.002-.004l-.401-.298.401.298zm4.184 0l.401-.298-.401.298zm.003.004l-.402.297.402-.297zm1.63 0l.402.298v-.001l-.401-.297zm4.185-.004l-.402.298.402-.298zm.003.004l.402-.297v-.001l-.402.298zm1.633.002l-.402-.298.402.298zm.003-.004l.401.298-.401-.298zm4.183 0l-.402.298.402-.298zm.003.004l.402-.297-.402.297zm1.633-.002l.402.297-.402-.297zm4.186-.004l.402-.298-.402.298zm.003.004l-.402.298.402-.298zm.937.646l.202.457.104-.046.074-.086-.38-.325zm3.098-.56a.941.941 0 00.065-.15l-.95-.314v-.002l.005-.009.88.476zm-.757-.624l.634.773-.634-.773zm.548.864c.144-.097.205-.23.217-.255l-.896-.444c-.01.022.026-.066.121-.13l.559.829zm.13-.127l.01-.014-.837-.547-.01.014.838.547zm-.03.044l.026-.038-.828-.56a.623.623 0 01-.01.015l.812.583zm-.013.018l.014-.02-.815-.578-.014.02.815.578zm-.086.106c.028-.032.053-.063.07-.085l-.783-.621a.997.997 0 01-.033.04l.746.666zm-.025.026l.007-.007-.71-.704-.007.007.71.704zm-.02.02l.017-.017-.705-.71-.017.018.705.709zm-.015.014l.01-.009-.695-.72-.01.01.695.72zm-.03.027l.027-.024-.69-.725-.004.005.668.744zm-.101.086a1.04 1.04 0 00.123-.106l-.71-.704.001-.001-.006.004.592.806zm-.097.062c.028-.016.056-.035.08-.05l-.558-.83a1.174 1.174 0 01-.04.025l.518.855zm-.04.022l.014-.007-.465-.885-.013.007.465.885zm-.006.004l.017-.01-.485-.874-.017.01.485.874zm-.073.038c.034-.016.063-.033.075-.039l-.489-.872a.338.338 0 01-.012.006l.003-.001.423.906zm-.093.038c.014-.005.06-.02.107-.045l-.45-.893a.15.15 0 01.01-.005l.004-.001-.003.001c-.003 0-.006.002-.01.004l.342.94zm.014-.005l-.37-.929.37.929zm0 0l-.37-.929h-.001l.371.929zm-.024.009a.537.537 0 01.01-.004l-.343-.94-.015.007.348.937zm-.003.001l.003-.001-.348-.938-.017.007.362.932zm.004-.002h.002a.238.238 0 01-.01.004l-.354-.936a.676.676 0 00-.04.017l.402.915zm-.124.042a.64.64 0 00.124-.042l-.402-.915.009-.004a.361.361 0 01.05-.015l.22.976zm-.103.013a.535.535 0 00.116-.016l-.244-.97a.466.466 0 01.1-.014l.028 1zm-.017 0h.019l-.031-1h.012v1zm.002 0h.004l-.012-1h-.004l.012 1zm.109-.014a.466.466 0 01-.097.014l-.035-1a.536.536 0 00-.112.016l.244.97zm-.313.041c.116 0 .223-.018.317-.042l-.252-.968a.263.263 0 01-.066.01v1zm-.122-.486l.201.458h-.001l-.002.001-.004.002-.007.003a.402.402 0 01-.07.021c-.014.003-.014.001.005.001v-1a1.017 1.017 0 00-.26.033.572.572 0 00-.033.011l-.016.007-.008.003-.003.001-.002.001h-.001s-.001.001.2.458zm.332.542c.022-.07.046-.149.07-.215a.676.676 0 01.026-.07c.002-.007.002-.005-.001 0a.422.422 0 01-.047.068l-.76-.65a.703.703 0 00-.112.19 2.19 2.19 0 00-.05.133c-.03.085-.06.181-.081.248l.955.296zm-.004.013l.004-.013-.955-.296-.004.013.955.296zm-2.272 1.901c.814 0 1.364-.335 1.719-.77.334-.409.477-.885.553-1.132l-.955-.295c-.08.257-.177.555-.373.795-.174.214-.445.402-.944.402v1zm-2.492-1.506c.4.54 1.094 1.506 2.492 1.506v-1c-.85 0-1.273-.54-1.69-1.102l-.802.596zm-.003-.004l.003.004.803-.596-.003-.004-.803.596zm-.414-.46c.03 0 .033.004.027.002-.007-.003 0-.003.024.018.066.055.164.17.361.438l.806-.592c-.185-.252-.351-.468-.526-.614a1.027 1.027 0 00-.692-.252v1zm-.414.458c.199-.268.297-.383.363-.439.025-.02.03-.02.024-.018-.006.003-.003 0 .027 0v-1c-.257 0-.479.073-.692.25-.173.146-.34.36-.525.612l.803.595zm-.003.004l.003-.004-.803-.595-.003.003.803.596zm-2.494 1.506c1.4 0 2.093-.966 2.494-1.506l-.803-.596c-.416.562-.84 1.102-1.691 1.102v1zm-2.493-1.506c.401.54 1.095 1.506 2.493 1.506v-1c-.85 0-1.273-.54-1.69-1.102l-.803.596zm-.002-.004l.002.004.804-.596-.003-.004-.803.596zm-.414-.458c.03 0 .033.004.027.002-.006-.003 0-.003.024.018.066.055.164.17.362.437l.805-.594c-.186-.25-.352-.466-.526-.612a1.028 1.028 0 00-.692-.25v1zm-.414.46c.199-.27.297-.385.364-.44.025-.021.031-.021.024-.019-.006.003-.003 0 .026 0v-1c-.257 0-.479.074-.691.251-.174.145-.34.36-.527.613l.804.594zM35.938 40c1.4 0 2.096-.97 2.495-1.51l-.804-.595c-.414.562-.84 1.105-1.691 1.105v1zm-2.495-1.506c.401.54 1.095 1.506 2.495 1.506v-1c-.852 0-1.275-.54-1.691-1.102l-.804.596zm-.003-.004l.003.004.804-.596-.003-.004-.804.596zm-.413-.458c.03 0 .033.004.027.002-.006-.003 0-.002.024.018.066.055.164.17.362.437l.805-.593c-.186-.252-.352-.467-.526-.612a1.028 1.028 0 00-.692-.252v1zm-.414.458c.199-.268.297-.383.363-.439.024-.02.03-.02.024-.017-.007.002-.003-.002.027-.002v-1c-.257 0-.48.074-.692.252-.173.145-.34.36-.526.61l.804.596zM30.118 40c1.403 0 2.096-.97 2.495-1.51l-.804-.595c-.415.562-.838 1.105-1.692 1.105v1zm-2.493-1.506c.4.54 1.094 1.506 2.492 1.506v-1c-.849 0-1.272-.54-1.689-1.102l-.803.596zm-.003-.004l.003.004.803-.596-.002-.004-.804.596zm-.414-.458c.03 0 .034.004.028.002-.007-.003 0-.002.024.018.066.055.164.17.361.437l.805-.593c-.185-.252-.351-.467-.526-.612a1.028 1.028 0 00-.692-.252v1zm-.413.46c.199-.27.297-.385.364-.44.024-.021.03-.021.024-.019-.006.003-.003 0 .025 0v-1c-.256 0-.478.074-.69.251-.174.145-.341.361-.527.613l.804.594zm-2.496 1.51c1.402 0 2.097-.97 2.496-1.51l-.804-.595c-.415.562-.84 1.105-1.692 1.105v1zm-2.492-1.506c.4.54 1.094 1.506 2.492 1.506v-1c-.85 0-1.272-.54-1.689-1.102l-.803.596zm-.003-.004l.003.004.803-.596-.003-.004-.803.596zm-.414-.458c.03 0 .034.004.028.002-.007-.003 0-.002.024.018.066.055.164.17.361.437l.805-.593c-.185-.252-.352-.467-.526-.612a1.028 1.028 0 00-.692-.252v1zm-.413.46c.198-.27.297-.385.363-.44.025-.02.032-.021.025-.019-.007.003-.003 0 .025 0v-1c-.256 0-.478.074-.69.251-.174.145-.341.361-.527.613l.804.594zm-2.496 1.51c1.401 0 2.097-.97 2.496-1.51l-.805-.594c-.414.56-.84 1.104-1.69 1.104v1zm-1.29-.586c.327.379.791.586 1.29.586v-1a.687.687 0 01-.533-.239l-.756.654zm-.332-3.849c-.114.855-.205 1.599-.191 2.213.014.619.135 1.19.525 1.638l.754-.656c-.167-.192-.268-.486-.28-1.005-.011-.522.067-1.186.183-2.058l-.991-.132zm.004-.029l-.004.03.991.13.004-.03-.991-.13zm.163-1.931c.016.18 0 .492-.036.867-.035.365-.086.75-.127 1.064l.991.13c.041-.31.094-.713.131-1.097.036-.373.062-.77.037-1.053l-.996.089zm-3.754 5.676a20.074 20.074 0 012.145-3.37c.414-.517.83-.963 1.22-1.293.401-.338.735-.518.984-.567l-.194-.981c-.495.098-.985.405-1.434.783-.457.386-.918.885-1.356 1.432a21.082 21.082 0 00-2.26 3.549l.895.447zm-1.16.72c.489 0 .94-.276 1.16-.721l-.895-.444a.294.294 0 01-.264.164v1zm-.11-.007c.053.007.1.006.11.006v-1h-.007c-.002 0-.002 0 0 0l.023.002-.126.992zm-1.11-.855c.175.49.626.829 1.145.859l.056-.999a.295.295 0 01-.259-.196l-.942.336zm-.07-8.023c-.918 1.42-.909 3.345-.694 4.885.217 1.566.668 2.87.764 3.139l.942-.338a15.789 15.789 0 01-.716-2.939c-.208-1.494-.168-3.104.543-4.204l-.84-.543zm3.25-1.793c-1.398.091-2.542.7-3.25 1.793l.84.543c.511-.79 1.346-1.264 2.475-1.338l-.065-.998zm1.266-.295c.03-.072.037-.007-.199.09-.21.086-.554.171-1.067.205l.066.998c.585-.039 1.042-.139 1.381-.278.314-.13.62-.331.746-.638l-.927-.377zm-.174-.163a.812.812 0 01.148.227c.01.025.01.034.009.027a.208.208 0 01.017-.091l.927.377c.1-.249.046-.5-.02-.67a1.795 1.795 0 00-.328-.528l-.753.658zm-2.925-.661c1.337-.367 2.464.132 2.924.66l.754-.656c-.727-.836-2.257-1.431-3.942-.969l.264.965zm-4.886 5.969c.376-1.381 1.125-2.756 2.032-3.85.915-1.105 1.945-1.871 2.854-2.12l-.264-.964c-1.187.324-2.38 1.261-3.36 2.445-.99 1.194-1.81 2.694-2.227 4.227l.965.262zm.434 3.614c-.452-.468-.638-1.1-.667-1.776-.03-.677.102-1.352.234-1.839l-.966-.261c-.145.538-.302 1.323-.267 2.143.035.82.266 1.723.946 2.428l.72-.695zm-.025 1.843c.51-.502.523-1.325.026-1.842l-.722.693a.312.312 0 01-.005.436l.7.713zm-1.839-.026c.502.52 1.323.53 1.838.027l-.7-.716a.292.292 0 01-.419-.005l-.719.694zM4.85 33.491c-.664 2.445-.34 4.655 1.074 6.118l.72-.695c-1.087-1.123-1.437-2.922-.829-5.16l-.965-.263zm6.71-7.8c-1.605.437-3.071 1.627-4.227 3.054-1.16 1.433-2.052 3.157-2.483 4.746l.965.262c.392-1.445 1.215-3.046 2.295-4.379 1.085-1.339 2.386-2.357 3.713-2.718l-.263-.965zm5.557 1.46c-1.067-1.224-3.188-2.107-5.558-1.46l.264.965c1.996-.545 3.723.215 4.54 1.152l.754-.657zm.623 2.876c.398-.969.12-2.025-.624-2.877l-.753.658c.56.641.672 1.304.452 1.84l.925.38zm-3.498 1.907c1.084-.071 1.87-.324 2.436-.68.57-.36.89-.81 1.062-1.226l-.925-.38c-.097.236-.287.518-.67.76-.39.245-1.003.465-1.969.528l.066.998zM13 32.546c.226-.348.593-.57 1.242-.612l-.066-.998c-.878.058-1.575.388-2.015 1.066l.839.544zm-.142 3.974c-.148-.714-.256-1.503-.25-2.229.007-.737.132-1.344.392-1.745l-.84-.544c-.412.637-.544 1.47-.552 2.28-.007.822.115 1.687.271 2.442l.98-.203zm4.996-5.082c-1.301-.04-2.499.774-3.469 1.735-.987.978-1.835 2.204-2.441 3.186l.85.526c.59-.955 1.39-2.105 2.295-3.002.922-.914 1.861-1.473 2.733-1.445l.032-1zm1.26.612a1.7 1.7 0 00-1.259-.612l-.034 1a.7.7 0 01.524.253l.768-.64zm.486 1.31c-.045-.482-.175-.939-.488-1.311l-.765.643c.133.16.223.39.257.761l.996-.093zm7.288-2.83c-4.293.436-6.517 1.428-8.063 2.461l.555.832c1.388-.927 3.448-1.875 7.609-2.3l-.101-.994zM30.977.961c-.45.535-9.159 11.24-4.525 30.183l.971-.237C22.893 12.385 31.411 2 31.743 1.605l-.766-.643zm.08-.078c0 .002-.026.021-.052.048l.71.704a.42.42 0 01-.026.024l-.007.006-.624-.782zm-.077.081A.455.455 0 0131.038.9l.02-.017.623.782.01-.008a.57.57 0 00.092-.096L30.98.965zm.15-.152c-.035.03-.075.067-.117.113l.738.675a.307.307 0 01.03-.028l-.65-.76zm.096-.077A.824.824 0 0031.1.84l.71.704a.097.097 0 01-.026.02l-.558-.829zm.109-.066c-.024.014-.065.037-.109.066l.558.83a.705.705 0 01.041-.024l-.49-.872zm.016-.009l-.017.01.492.87.017-.009-.492-.87zm.091-.049a.853.853 0 00-.112.062l.534.845.008-.005c.001 0 .001 0 0 0a.218.218 0 01-.02.01l-.41-.912zm.198-.067c-.06.015-.123.035-.189.063l.391.92a.286.286 0 01.043-.013l-.245-.97zm-.009.004l.007-.002a.4.4 0 01.053-.012l.143.99a.58.58 0 00.116-.029L31.63.55zm.035-.011l-.035.01.319.948a.215.215 0 01-.007.002l-.277-.96zM31.972.5c-.093 0-.186.01-.277.03l.219.976a.263.263 0 01.058-.006v-1zm.134.004L31.99.5l-.034 1 .117.004.034-1zm.975.463a1.29 1.29 0 00-.992-.463v1a.29.29 0 01.225.105l.767-.642zM37.646 31C42.196 12.149 33.53 1.499 33.08.965l-.764.645c.33.392 8.807 10.724 4.358 29.156l.972.235zm13.26 5.394c-.056-.205-.492-1.544-2.434-2.916-1.936-1.366-5.337-2.743-11.283-3.094l-.059.998c5.822.344 9.025 1.685 10.765 2.913.87.614 1.38 1.204 1.672 1.638a3.473 3.473 0 01.356.669l.017.053.966-.26zm.006.036a.41.41 0 01.009.044v.003a.478.478 0 00-.013-.071l-.97.24a.41.41 0 01-.01-.044v-.008c0-.001 0-.002 0 0v.007a.542.542 0 00.013.071l.971-.24zm.021.124l-.012-.079-.989.151.012.079.989-.151zm.014.16c0-.07-.01-.133-.013-.155l-.99.14.002.017.001.008v-.01h1zm-.003-.05v.01a.183.183 0 01.003.04h-1a.56.56 0 00.004.073l.993-.122zm0 0l-.992.124.992-.124zm-.001-.009l-.99.142.99-.142zm.006.083a.56.56 0 00-.003-.052c0-.011-.002-.02-.002-.021l-.993.122v-.01a.396.396 0 01-.002-.04h1zm-.002.04l.002-.04h-1v-.017l.998.058zm-.002.029l.002-.028-.998-.058v-.009l.996.095zm-.004.035l.004-.036-.995-.093v-.002.006l.991.124zm0 .004v-.005l-.992-.124v.005l.992.124zm.002-.025v-.003l-.997-.068v.003l.997.068zm0 .011l-.996-.09.995.09zm-.02.142a.93.93 0 00.02-.152l-.997-.07-.002.016v.009c0 .001 0 .001 0 0l.002-.01.978.207zm-.019.09c.005-.021.016-.065.024-.112l-.987-.163-.001.007a1.552 1.552 0 01-.007.027l.971.24zm.003-.012l-.976-.217.976.217zm-.014.05a.684.684 0 01.004-.013l-.957-.292-.01.034.963.271zm-.002.009l-.958-.288.958.288zm-.005.014l-.949-.316.95.316zm-.029.085c.02-.048.032-.095.036-.108l-.962-.27a.938.938 0 00-.003.01l-.001.002.001-.004.005-.011.924.381zm-16.026-4.349h-2.062v1h2.062v-1zM32.337 4.52c2.278 3.92 6.506 13.877 2.015 28.699l.957.29c4.59-15.146.276-25.39-2.108-29.492l-.864.503zm.932 28.843V4.268h-1v29.094h1zm-1.595 0V4.48h-1v28.884h1zm-2.444.5h1.944v-1H29.23v1zm1.509-29.63c-2.4 4.246-6.488 14.425-1.988 29.276l.957-.29c-4.404-14.534-.396-24.429 1.901-28.493l-.87-.492zm16.64 33.1l-.004.014.955.297.004-.013-.955-.297zm.542.645l-.13-.991.13.991zm.25-2.015c-.51.451-.7 1.075-.792 1.371l.955.297c.095-.308.223-.674.5-.92l-.664-.748zm-11.449-2.987c8.003.416 10.624 2.698 11.386 3.67l.788-.617c-1.005-1.281-3.953-3.627-12.122-4.052l-.052.999zm-.07 1.59c.21-.662.401-1.314.578-1.957l-.964-.265a52.87 52.87 0 01-.567 1.921l.954.302zm-1.236.911a1.3 1.3 0 001.237-.91l-.953-.302a.3.3 0 01-.284.212v1zm-6.774 0h6.774v-1h-6.774v1zm-1.237-.91a1.3 1.3 0 001.237.91v-1a.3.3 0 01-.283-.212l-.954.302zm-.537-1.824c.167.598.344 1.205.537 1.822l.954-.298a59.48 59.48 0 01-.528-1.792l-.963.268zm-7.573 3.14c.687-.537 1.454-1.103 2.666-1.6 1.218-.498 2.908-.936 5.436-1.176l-.095-.996c-2.598.247-4.389.702-5.72 1.247-1.337.548-2.188 1.178-2.902 1.736l.615.788zm.17-.19l.018-.14-.991-.13-.019.144.992.125zm-.03.233l.03-.234-.992-.125c-.01.074-.018.146-.029.22l.99.139zm-.17 1.882c-.02-.426.09-1.275.17-1.886l-.991-.131c-.075.564-.204 1.526-.177 2.066l.998-.05zm-.37-.861c-.254.347-.343.43-.384.456l.51.86c.25-.15.457-.42.68-.724l-.806-.592zm.005-.006l-.003.004.803.596.003-.004-.803-.596zm2.494-1.506c-1.4 0-2.094.966-2.494 1.506l.803.596c.416-.562.84-1.102 1.69-1.102v-1zm2.492 1.506c-.4-.54-1.094-1.506-2.492-1.506v1c.85 0 1.273.54 1.689 1.102l.803-.596zm.003.004l-.003-.004-.803.596.003.003.803-.595zm.414.458c-.03 0-.034-.004-.027-.002.006.003 0 .003-.025-.018-.066-.055-.164-.17-.361-.437l-.805.594c.185.251.352.466.526.612.213.177.436.25.692.25v-1zm.414-.458c-.2.269-.297.383-.363.439-.025.02-.031.02-.024.018.006-.003.003 0-.027 0v1c.257 0 .479-.073.691-.25.174-.146.34-.36.526-.611l-.803-.596zm.003-.004l-.003.004.803.596.003-.004-.803-.596zm2.494-1.506c-1.4 0-2.093.966-2.494 1.506l.803.596c.416-.562.84-1.102 1.691-1.102v-1zm2.492 1.506c-.4-.54-1.094-1.506-2.492-1.506v1c.85 0 1.273.54 1.689 1.102l.803-.596zm.003.004l-.003-.004-.803.596.003.003.803-.595zm.414.458c-.029 0-.032-.004-.026-.001.007.002 0 .002-.024-.019-.067-.055-.165-.17-.364-.438l-.803.596c.186.25.353.466.527.61.212.178.434.252.69.252v-1zm.414-.458c-.2.269-.297.383-.363.439-.025.02-.03.02-.024.018.006-.003.003 0-.027 0v1c.257 0 .479-.073.692-.25.173-.146.34-.36.525-.611l-.803-.596zm2.495-1.51c-1.403 0-2.097.97-2.496 1.511l.805.594c.414-.562.838-1.105 1.691-1.105v-1zm2.493 1.506c-.401-.54-1.095-1.506-2.493-1.506v1c.85 0 1.273.54 1.69 1.102l.803-.596zm.002.004l-.003-.004-.803.596.003.004.803-.596zm.416.46c-.03 0-.033-.004-.027-.001.006.002 0 .002-.025-.019-.066-.055-.164-.17-.363-.44l-.804.595c.186.252.353.468.527.613.213.178.436.252.692.252v-1zm.414-.458c-.199.269-.297.383-.363.439-.025.02-.03.02-.024.018.006-.003.003 0-.027 0v1c.257 0 .479-.073.692-.25.173-.145.34-.36.525-.611l-.803-.596zm.003-.004l-.003.004.803.596.003-.004-.803-.596zm2.494-1.506c-1.4 0-2.093.966-2.494 1.506l.803.596c.416-.561.84-1.102 1.691-1.102v-1zm2.493 1.506c-.401-.54-1.094-1.506-2.493-1.506v1c.85 0 1.273.54 1.69 1.102l.803-.596zm.002.004l-.002-.004-.804.596.003.004.803-.596zm.414.458c-.03 0-.033-.004-.027-.001.006.002 0 .002-.024-.019-.066-.054-.164-.169-.362-.437l-.805.594c.186.251.352.467.526.612.214.177.436.25.692.25v-1zm.416-.46c-.199.27-.297.385-.364.44-.024.02-.03.02-.024.019.006-.003.002 0-.028 0v1c.257 0 .48-.073.693-.25.174-.146.34-.362.527-.614l-.804-.594zm2.495-1.51c-1.4 0-2.096.97-2.495 1.511l.804.594c.414-.562.84-1.105 1.691-1.105v-1zm2.495 1.506c-.401-.54-1.094-1.506-2.495-1.506v1c.852 0 1.275.54 1.691 1.102l.804-.596zm.003.004l-.003-.004-.804.596.003.004.804-.596zm.414.458c-.03 0-.033-.004-.026-.001.006.002 0 .002-.025-.019-.066-.055-.165-.17-.363-.438l-.804.596c.187.25.353.466.527.61.213.178.434.252.69.252v-1zm.121.486l-.201-.458h.001l.002-.001.004-.002.007-.003.013-.005a.548.548 0 01.057-.016c.014-.003.014-.001-.005-.001v1a1.027 1.027 0 00.26-.033.571.571 0 00.049-.017l.008-.004.003-.001.002-.001h.001l-.2-.458zm-.332-.542a7.066 7.066 0 01-.096.285c-.002.007-.002.006.001 0a.422.422 0 01.047-.068l.76.65a.703.703 0 00.112-.19c.019-.043.036-.09.05-.132.03-.086.06-.182.081-.248l-.955-.297z" fill="#222532"/><path d="M6.046 26.232c-.102-.123-1.027-1.191-2.212-1.191-.548 0-1.331.227-1.947 1.307l-.688 1.208H7.15l-1.104-1.324z" fill="#fff" stroke="#222532"/><path fill-rule="evenodd" clip-rule="evenodd" d="M4.499 29.147l.82.087-.104.825c-.301 2.229-2.63 4.581-2.73 4.682l-1.079 1.078-.267-1.509c-.317-1.775-.092-3.139.668-4.054C2.87 28.974 4.5 29.147 4.5 29.147zm-1.466 2.141a1.74 1.74 0 00-.32.638c.169-.256.332-.523.472-.793a1.386 1.386 0 00-.152.155z" fill="#fff"/><path d="M5.318 29.234l.496.062.064-.506-.507-.054-.053.498zm-.82-.087l-.052.497.053-.497zm.717.912l.495.066v-.004l-.495-.062zm-2.73 4.682l.354.353.001-.001-.355-.352zm-1.079 1.078l-.492.087.167.945.679-.678-.354-.354zM1.14 34.31l.493-.087-.493.087zm.668-4.054l.385.319-.385-.32zm.905 1.67l-.48-.14-.054.188.087.176.447-.224zm.321-.638l.384.321.003-.004-.387-.317zm-.32.638l-.448.224.386.772.478-.72-.417-.276zm.472-.793l.444.23-.777-.603.333.373zm2.186-2.397l-.82-.086-.105.994.82.087.105-.995zm.34 1.385l.103-.825-.992-.125-.103.825.992.125zm-2.87 4.972a14.17 14.17 0 001.34-1.603c.644-.897 1.362-2.125 1.53-3.365l-.992-.133c-.133.99-.73 2.052-1.35 2.914-.611.849-1.198 1.44-1.24 1.483l.711.704zm-1.081 1.08l1.079-1.079-.707-.707-1.08 1.079.708.707zM.647 34.397l.267 1.51.985-.175-.267-1.509-.985.174zm.775-4.46C.53 31.012.318 32.553.647 34.398l.984-.176c-.304-1.705-.065-2.893.56-3.647l-.769-.639zm3.077-.79l.052-.497H4.55a.095.095 0 00-.01-.001 2.2 2.2 0 00-.09-.006 4.112 4.112 0 00-1.005.09c-.613.132-1.4.452-2.023 1.204l.77.638c.44-.53.999-.764 1.465-.866a3.099 3.099 0 01.746-.067l.038.002a.257.257 0 01.007 0h-.001l.052-.497zm-1.307 2.919c.06-.206.138-.354.225-.457l-.767-.642c-.197.235-.33.518-.418.82l.96.279zm-.032-.364l-.895.448.895-.448zm-.42-.799c-.128.25-.281.5-.444.747l.833.552c.176-.265.35-.549.5-.839l-.888-.46zm.68.702a.904.904 0 01.098-.099l-.666-.746a1.89 1.89 0 00-.205.211l.773.634z" fill="#222532"/><path fill-rule="evenodd" clip-rule="evenodd" d="M10.64 24.668c0 .84-.68 1.525-1.514 1.525a1.52 1.52 0 01-1.511-1.525 1.52 1.52 0 011.511-1.525 1.52 1.52 0 011.513 1.525zm-1.43 0a.085.085 0 00-.084-.085.083.083 0 00-.082.085c0 .092.166.092.166 0z" fill="#fff"/><path d="M9.126 26.693a2.022 2.022 0 002.013-2.025h-1c0 .568-.46 1.025-1.013 1.025v1zm-2.011-2.025a2.02 2.02 0 002.011 2.025v-1a1.02 1.02 0 01-1.011-1.025h-1zm2.011-2.025a2.02 2.02 0 00-2.011 2.025h1c0-.57.458-1.025 1.011-1.025v-1zm2.013 2.025a2.02 2.02 0 00-2.013-2.025v1a1.02 1.02 0 011.013 1.025h1zm-2.013.415a.415.415 0 01-.416-.415h1a.585.585 0 00-.584-.585v1zm.418-.415c0 .21-.168.415-.418.415v-1a.583.583 0 00-.582.585h1zm-.834 0a.44.44 0 01.175-.349.405.405 0 01.242-.082c.065 0 .155.017.242.082a.438.438 0 01.175.349h-1c0 .192.095.354.227.453a.596.596 0 00.712 0 .563.563 0 00.227-.453h-1z" fill="#222532"/></svg>